<svg xmlns="http://www.w3.org/2000/svg" viewBox="0 0 72 72">
    <path class="cls-2" d="M19.22,18.16c0-.8,0-1.54,0-2.27a4.25,4.25,0,0,1,4.52-4.47c.73.05,1.48,0,2.19.09a4.13,4.13,0,0,1,3.41,4.08c0,.83,0,1.67,0,2.54H39.45c0-.85,0-1.68,0-2.51a4.13,4.13,0,0,1,3-4,8.22,8.22,0,0,1,4.15,0,4.16,4.16,0,0,1,3,3.94c0,.85,0,1.7,0,2.61,1.07,0,2.08,0,3.09,0a3.42,3.42,0,0,1,3.65,3.63c0,3.94,0,7.88,0,11.81a1.15,1.15,0,0,1-.38,1c-.9.86-1.77,1.74-2.64,2.63a1.15,1.15,0,0,1-.91.39H35.26V55.27H52.94v-.59c0-3,0-6,0-9a1.27,1.27,0,0,1,.43-1c1-.94,1.89-1.9,2.92-3,0,.3,0,.46,0,.63V55.19a3.37,3.37,0,0,1-3.51,3.49H16a3.4,3.4,0,0,1-3.55-3.53q0-16.71,0-33.43A3.4,3.4,0,0,1,16,18.16Zm5.94,19.45V46h8.35V37.61Zm10.11-9.28v7.52h8.36V28.33Zm-10.1,0v7.52H33.5V28.33Zm-9.28,9.28V46h7.52V37.61ZM33.51,55.28V47.75H25.17v7.53ZM23.41,28.36H15.88v7.48h7.53Zm29.5,7.52V28.36H45.42v7.52ZM26,19.47c0-1.24,0-2.48,0-3.72A.87.87,0,0,0,25,14.8c-.51,0-1,0-1.52,0a.82.82,0,0,0-.89.89q0,3.74,0,7.49a.81.81,0,0,0,.88.89c.48,0,1,0,1.46,0,.72,0,1-.32,1-1Zm20.24,0c0-1.2,0-2.41,0-3.61,0-.75-.32-1-1.06-1,.47,0,1,0,1.42,0a.84.84,0,0,0,.88.84c0,.23,0,.46,0,.68V23c0,.82.26,1.08,1.1,1.09h1.15c.82,0,1.11-.29,1.11-1.11C46.21,21.8,46.2,20.63,46.2,19.46Z"/>
    <path class="cls-2" d="M44.72,51.43l-6.06-6.07,2.16-2.11,3.8,3.85L57.34,34.38l2.2,2.26Z"/>
</svg>
