<svg xmlns="http://www.w3.org/2000/svg"
    viewBox="0 0 120 120"><defs>
    <style>.cls-1{fill:#fff;stroke:#04a4d0;stroke-miterlimit:10;stroke-width:1.13px;}.cls-2{fill:#145da0;}</style>
</defs><path class="cls-2" d="M40.62,79.27c0,.58,0,1.15-.09,1.72a13.73,13.73,0,0,1-.19,1.57A1.55,1.55,0,0,1,38.83,84a26.51,26.51,0,0,1-2.67.13c-2.07,0-4.15,0-6.22,0a12,12,0,0,1-1.79-.2,2.09,2.09,0,0,1-1.09-.61,1.9,1.9,0,0,1-.5-1.38c-.09-1.62-.21-3.25-.22-4.88q0-6.72,0-13.43c0-1.52.17-3,.33-4.56a6.49,6.49,0,0,1,2.43-4.42c.26-.21.52-.42.79-.61a.34.34,0,0,0,.14-.32c0-.39-.07-.78-.08-1.17,0-.2-.09-.27-.27-.29l-1.62-.14a4,4,0,0,1-1.67-.39A1.29,1.29,0,0,1,26,49.44a5.38,5.38,0,0,1,2.09-1.25,7.83,7.83,0,0,1,3.46-.44c.46,0,.36,0,.48.4a9.34,9.34,0,0,1,.31,2.34c0,.3,0,.61,0,.91l.09,0a2.74,2.74,0,0,0,.23-.36c.4-.9.82-1.78,1.19-2.69a53.22,53.22,0,0,1,2.59-5.77c.43-.77.91-1.51,1.41-2.24a8.88,8.88,0,0,1,5.37-3.63A28.51,28.51,0,0,1,48.37,36c2.9-.2,5.8-.1,8.69-.07,3.08,0,6.15,0,9.23-.06a59.27,59.27,0,0,1,7.29.31,22.76,22.76,0,0,1,3.57.7A8.73,8.73,0,0,1,82,40.31a24.8,24.8,0,0,1,2.78,5.14c.7,1.7,1.42,3.38,2.15,5.07.14.31.34.6.51.9l.07,0c0-.07,0-.13,0-.2.08-.89.16-1.79.25-2.68,0-.15.09-.3.11-.45s.18-.31.4-.31A9.56,9.56,0,0,1,93.45,49a2.12,2.12,0,0,1,.86.87A1.07,1.07,0,0,1,94,51.4a4.26,4.26,0,0,1-1.65.63c-.68.12-1.38.2-2.08.27-.19,0-.26.08-.26.27,0,.4,0,.8,0,1.2A.37.37,0,0,0,90,54c.23.17.47.31.71.46a3.2,3.2,0,0,1,1,1,11.59,11.59,0,0,1,1.83,5.64c0,.86,0,1.72,0,2.59,0,2.58,0,5.16,0,7.74,0,3-.1,6.09-.17,9.13,0,.57-.11,1.14-.17,1.72a1.76,1.76,0,0,1-1.16,1.51,4.54,4.54,0,0,1-1.82.32c-1.3,0-2.61,0-3.91,0-1.47,0-2.94,0-4.4,0A7,7,0,0,1,80.9,84a1.52,1.52,0,0,1-1.3-1.28c-.1-.61-.16-1.23-.21-1.84s0-1,0-1.46c0-.17,0-.23-.22-.23l-11.75,0-7.08,0-19.42,0ZM59.27,52.91V53l8,.11c4.35,0,8.7.06,13-.3,1.21-.1,2.41-.32,3.62-.49.19,0,.26-.12.24-.32a9.51,9.51,0,0,0-.61-2.4,45.08,45.08,0,0,0-4-7.92,3.16,3.16,0,0,0-2-1.42,5.27,5.27,0,0,0-1-.18c-1.61-.12-3.22-.22-4.84-.31-3.73-.18-7.47-.24-11.21-.24-4.63,0-9.26.07-13.88.42-1,.08-2.08.2-3.12.35a3,3,0,0,0-2.08,1.21c-.15.23-.3.46-.43.69-.62,1.15-1.25,2.3-1.85,3.46a37,37,0,0,0-2.24,5.07,4,4,0,0,0-.2.83.72.72,0,0,0,.61.9,4.17,4.17,0,0,0,.85.13c2.77.12,5.54.3,8.31.34C50.64,53,55,52.91,59.27,52.91ZM59,75.05v0c.95,0,1.91,0,2.87,0,3.75,0,7.49.07,11.23-.23A21.7,21.7,0,0,0,77,74.21a4,4,0,0,0,1.53-.67,5.67,5.67,0,0,0,1.7-2.26,2.65,2.65,0,0,0,.23-1.44c-.05-.42-.09-.46-.5-.55a5.07,5.07,0,0,0-.54-.09,21.73,21.73,0,0,0-4,.16c-1.24.12-2.48.31-3.72.35-3.68.11-7.37.21-11.06.25-4.86.05-9.73-.07-14.58-.41-1.44-.11-2.87-.26-4.3-.38-.3,0-.6-.06-.9-.06a.56.56,0,0,0-.56.43,1.79,1.79,0,0,0,0,.76,5.78,5.78,0,0,0,1.69,3,5.21,5.21,0,0,0,3.16,1.27c1.23.11,2.46.16,3.69.2C52.22,74.89,55.62,75,59,75.05ZM78.6,62.33a3.59,3.59,0,0,0-.44,0c-1.38,0-2.76,0-4.13,0-3.81.1-7.61.25-11.41.31-2.15,0-4.29-.05-6.44-.08-1.86,0-3.73,0-5.6,0-2.33-.06-4.67-.16-7-.23a6.12,6.12,0,0,0-1,.08.44.44,0,0,0-.23.18,1.33,1.33,0,0,0-.12.9c0,.49-.08.4.44.55a39.14,39.14,0,0,0,5.77,1.1c2.63.34,5.27.63,7.91.92a32.88,32.88,0,0,0,6.8.06c3.81-.38,7.63-.78,11.42-1.37,1.14-.18,2.27-.44,3.4-.66a.49.49,0,0,0,.47-.54C78.49,63.11,78.56,62.73,78.6,62.33ZM31,56.46l-.12.13A7,7,0,0,0,29.48,62a.32.32,0,0,0,.18.2L32,63a.74.74,0,0,1,.22.1,1.94,1.94,0,0,0,1.31.4,6.3,6.3,0,0,1,1.42.19,14.7,14.7,0,0,0,5.25.14c.23,0,.33-.12.33-.35s0-.34,0-.5a1.93,1.93,0,0,0-1.3-2.09l-.31-.13c-.8-.34-1.61-.7-2.43-1-.64-.24-1.31-.44-2-.64-.22-.07-.49,0-.59-.32,0,0-.09-.06-.13-.09a12.6,12.6,0,0,1-2-1.45Zm58.86-.1c-.31.29-.61.55-.88.84a5.47,5.47,0,0,1-2.58,1.66,2.56,2.56,0,0,0-.84.38,3.69,3.69,0,0,1-1.25.52l-.66.2A8.28,8.28,0,0,0,81.23,61a2.09,2.09,0,0,0-1,2c.1.83.06.72.79.88a9.27,9.27,0,0,0,2.88.11A6.23,6.23,0,0,0,86,63.57a.94.94,0,0,1,.33-.08c.43,0,.86,0,1.28-.08A3.2,3.2,0,0,0,90.4,60.7a7.44,7.44,0,0,0-.49-4.14C89.89,56.5,89.85,56.45,89.81,56.36Zm-6.38,16h0l.35,0A1.32,1.32,0,0,0,85,71.18a1.53,1.53,0,0,0-1-1.62,1.22,1.22,0,0,0-1.78.92,2.59,2.59,0,0,0,.23,1.62.24.24,0,0,0,.18.12C82.89,72.28,83.16,72.31,83.43,72.35Zm-46,0c.24,0,.48,0,.72-.1a.27.27,0,0,0,.18-.13,2.36,2.36,0,0,0,0-2.25s-.08-.12-.13-.13a2.44,2.44,0,0,0-1.91.19,1.23,1.23,0,0,0,0,2.13A2,2,0,0,0,37.4,72.33Z"/></svg>