<svg  xmlns="http://www.w3.org/2000/svg" viewBox="0 0 32 32"><defs><style>.cls-1{fill:#39b54a;}.cls-2{fill:#fff;}</style></defs><circle class="cls-1" cx="16" cy="16" r="16"/><path class="cls-2" d="M7.61,13.7a8.49,8.49,0,0,1,1.21.79c1.21,1.18,2.41,2.36,3.56,3.59.56.59.93.53,1.46,0,2.85-3.05,5.8-6,8.59-9.11,2-2.18,2.49-1.4,4.05.4.53.6.29,1.31-.28,1.91-2.9,3-5.79,6.1-8.68,9.15-1.06,1.12-2.12,2.25-3.19,3.36a1.44,1.44,0,0,1-2.36,0q-3.11-3.14-6.19-6.3a1.37,1.37,0,0,1,0-2.23C6.36,14.71,7,14.24,7.61,13.7Z"/></svg>
