
<svg xmlns="http://www.w3.org/2000/svg" viewBox="0 0 54 54">
    <rect x=".5" y=".5" width="53" height="53" rx=".37" style="fill:#145da0"/>
    <path d="M26.38 1A26 26 0 1 1 1 27.61 26.07 26.07 0 0 1 26.38 1ZM10.09 43.51c.95-.49 1.88-1 2.85-1.46S15 41.27 16 40.86a38.48 38.48 0 0 0 3.68-1.53c1.86-1 2.31-4 1.07-5.7a32.43 32.43 0 0 1-1.93-3.47 3.42 3.42 0 0 0-.56-.9 4.54 4.54 0 0 1-1.4-4.74 8.29 8.29 0 0 0 0-3.77 25.86 25.86 0 0 1-.2-2.75c-.14-5.48 2.51-9 7.58-9.91 2.83-.51 5.67-.64 8 1.54a1.22 1.22 0 0 0 .54.21 6.15 6.15 0 0 1 4.44 4.82 16.93 16.93 0 0 1-.33 7.72 2.4 2.4 0 0 0 0 1.33 4.56 4.56 0 0 1-.51 4.66A27.5 27.5 0 0 0 34.35 32c-.36.66-.86 1.26-1.28 1.9a1.94 1.94 0 0 0-.39.68c-.6 2.84.08 4.15 2.75 5.3l1 .41 7.67 3.05c8.06-7.77 9.59-22.7.07-32.69a23.7 23.7 0 0 0-34.74.39C.19 21.29 2.16 36 10.09 43.51Z" style="fill:#fff"/>
</svg>

