<svg xmlns="http://www.w3.org/2000/svg" viewBox="0 0 72 72"><defs><style>.cls-1 { fill: rgb(0, 44, 128); stroke: rgb(255, 255, 255); stroke-miterlimit: 10; }.cls-2 { fill: rgb(255, 255, 255); }</style></defs><circle class="cls-1" cx="36" cy="36" r="35.5"/><path class="cls-2" d="M35.93 54.23H13.26c-2.07 0-2.87-.82-2.87-2.87V20.7a2.64 2.64 0 0 1 2.94-2.93q22.83.06 45.66 0a2.36 2.36 0 0 1 2.68 2.67v31.22a2.33 2.33 0 0 1-2.58 2.56zm0-1.07h22.83c1.45 0 1.84-.38 1.84-1.82v-30.5c0-1.66-.31-2-2-2H13.34c-1.56 0-1.91.35-1.91 1.89v30.61c0 1.45.37 1.82 1.83 1.82z"/><path class="cls-2" d="M43.85 41.54H47v7.52c0 .63.21.81.78.76h1.06v-2.75h3.11v2.71h1.87V39.72h3.12v10.07l1.8.09v1H37.11v-1l1.8-.08v-4.37H42v4.36h1.85z"/><path class="cls-2" d="M31.7 23.75c-.63.52-1.2 1.05-1.84 1.49a1 1 0 0 1-.86 0 8.08 8.08 0 0 0-10.62 3.66 13.62 13.62 0 0 0-.93 3.52c-.17.91-.47 1.44-1.16 1.53a1.3 1.3 0 0 1-1.51-1.5 10.39 10.39 0 0 1 5.63-9.25 10.44 10.44 0 0 1 11 .34 2.58 2.58 0 0 1 .29.21z"/><path class="cls-2" d="m35.26 22.46-1.21 1.67q-3.45 4.7-6.89 9.4a2 2 0 0 1-1.93 1.07 1.71 1.71 0 0 1-1.51-1.19 1.75 1.75 0 0 1 .56-2c1.35-1.13 2.7-2.24 4.06-3.36l6.83-5.63z"/><path class="cls-2" d="M25 46.31h-6a1.63 1.63 0 0 1-.74-.06c-.23-.12-.51-.4-.51-.61s.27-.5.49-.64.44 0 .66 0h12.33c.23 0 .51-.05.67.06s.48.43.47.65a.82.82 0 0 1-.52.58 4.86 4.86 0 0 1-1.27.07z"/><path class="cls-2" d="M25.07 50.36h-5.95a2 2 0 0 1-.82-.06c-.21-.09-.49-.36-.49-.54a1 1 0 0 1 .44-.67c.15-.12.43-.08.66-.08h12.87c.24.2.54.44.59.71s-.37.54-.6.56a21.25 21.25 0 0 1-2.26 0z"/><path class="cls-2" d="M25.06 42.22h-6.32c-.48 0-1 0-1-.66s.52-.67 1-.67h12.75c.49 0 .94.13.91.74s-.5.59-.94.59z"/><path class="cls-2" d="M34.12 26a10.62 10.62 0 0 1 2.27 6.71 1.24 1.24 0 0 1-1.39 1.2 1.26 1.26 0 0 1-1.26-1.24 8.73 8.73 0 0 0-1.12-4.17.58.58 0 0 1 0-.53c.5-.66.98-1.29 1.5-1.97z"/><path class="cls-2" d="M51.09 32.69h6.85c.33 0 .81-.1.77.42 0 .17-.5.42-.78.42H44.09c-.23-.14-.45-.29-.67-.44.22-.14.44-.4.67-.41 2.33-.01 4.67.01 7 .01z"/><path class="cls-2" d="M51 30.23h-6.54a1.85 1.85 0 0 1-.67-.05.6.6 0 0 1-.34-.4.61.61 0 0 1 .36-.4 2.11 2.11 0 0 1 .67 0H57.8a.91.91 0 0 1 .44 0 3.35 3.35 0 0 1 .51.42c-.17.14-.34.39-.53.41a16.45 16.45 0 0 1-1.72 0z"/><path class="cls-2" d="M51.16 22.69h6.7a.91.91 0 0 1 .44 0 2.39 2.39 0 0 1 .45.4 2 2 0 0 1-.44.43 1.27 1.27 0 0 1-.52 0H44.32l-.89-.46c.29-.14.58-.41.88-.42h6.85z"/><path class="cls-2" d="M51.12 26h6.55a2.49 2.49 0 0 1 .67 0c.16.05.41.27.39.35a.84.84 0 0 1-.39.46 1.43 1.43 0 0 1-.59 0H44.14c-.25-.15-.48-.33-.72-.49.23-.14.46-.38.7-.39.82-.05 1.65 0 2.48 0z"/><path class="cls-2" d="M16.64 45.69a1.24 1.24 0 0 1-1.3 1.17 1.2 1.2 0 0 1-1.18-1.28 1.21 1.21 0 0 1 1.29-1.18 1.25 1.25 0 0 1 1.19 1.29z"/><path class="cls-2" d="M16.63 49.65a1.23 1.23 0 0 1-1.2 1.28 1.21 1.21 0 0 1-1.27-1.19 1.24 1.24 0 1 1 2.47-.09z"/><path class="cls-2" d="M16.63 41.58a1.22 1.22 0 0 1-1.24 1.22 1.23 1.23 0 1 1 0-2.45 1.22 1.22 0 0 1 1.24 1.23z"/></svg>