<svg id="Layer_1" data-name="Layer 1" xmlns="http://www.w3.org/2000/svg" viewBox="0 0 51 36"><defs><style>.cls-1{fill:#002c80;}</style></defs><path class="cls-1" d="M25.43,36H3C1,36,.21,35.19.21,33.17c0-10.1,0-20.19,0-30.28A2.61,2.61,0,0,1,3.09,0c15,0,30.05,0,45.08,0a2.33,2.33,0,0,1,2.65,2.64v30.8A2.3,2.3,0,0,1,48.27,36Zm0-1.06H48c1.43,0,1.82-.37,1.82-1.79V3c0-1.64-.31-1.95-2-1.95H3.13c-1.55,0-1.89.34-1.89,1.87V33.14c0,1.44.36,1.8,1.81,1.8Z"/><path class="cls-1" d="M33.25,23.47h3.12v3.44c0,1.34,0,2.68,0,4,0,.61.21.79.77.75.32,0,.64,0,1.05,0V28.93h3.07v2.68h1.85V21.68h3.08v9.94l1.78.09v1H26.6v-1l1.77-.09v-4.3h3.06v4.3h1.82Z"/><path class="cls-1" d="M21.26,5.9c-.63.52-1.19,1-1.82,1.47a1.06,1.06,0,0,1-.85,0A8,8,0,0,0,8.1,10.94a13,13,0,0,0-.91,3.47c-.17.9-.47,1.42-1.15,1.52a1.29,1.29,0,0,1-1.5-1.49A10.28,10.28,0,0,1,10.1,5.31a10.34,10.34,0,0,1,10.82.33Z"/><path class="cls-1" d="M24.77,4.63l-1.2,1.65q-3.41,4.63-6.8,9.28a2,2,0,0,1-1.91,1.06,1.7,1.7,0,0,1-1.49-1.18,1.77,1.77,0,0,1,.55-2q2-1.65,4-3.31l6.75-5.56Z"/><path class="cls-1" d="M14.65,28.18H8.77A1.59,1.59,0,0,1,8,28.12c-.22-.12-.5-.39-.5-.6S7.8,27,8,26.88s.43,0,.65,0c4,0,8.08,0,12.12,0a1.4,1.4,0,0,1,.66.05c.21.15.47.43.47.65a.82.82,0,0,1-.52.57,4.71,4.71,0,0,1-1.25.07Z"/><path class="cls-1" d="M14.7,32.18H8.83a2.15,2.15,0,0,1-.81,0c-.21-.09-.48-.36-.48-.54A1.05,1.05,0,0,1,8,30.92c.15-.11.43-.07.65-.07H20.9c.15,0,.34-.05.43,0,.24.2.54.43.58.7s-.36.53-.59.55a20.63,20.63,0,0,1-2.23,0Z"/><path class="cls-1" d="M14.7,24.14H8.46c-.48,0-1,0-1-.65s.51-.66,1-.66H21c.49,0,.93.13.91.73s-.5.58-.93.58Z"/><path class="cls-1" d="M23.64,8.1a10.5,10.5,0,0,1,2.24,6.63,1.22,1.22,0,0,1-1.33,1.21,1.24,1.24,0,0,1-1.25-1.23,8.72,8.72,0,0,0-1.11-4.11.61.61,0,0,1,0-.53C22.65,9.42,23.13,8.79,23.64,8.1Z"/><path class="cls-1" d="M40.4,14.73h6.76c.33,0,.81-.1.76.42,0,.16-.49.41-.76.41-4.51,0-9,0-13.53,0-.05,0-.11,0-.14,0-.23-.14-.44-.29-.66-.44.22-.14.44-.39.66-.39C35.79,14.72,38.1,14.73,40.4,14.73Z"/><path class="cls-1" d="M40.32,12.31H33.85a2.06,2.06,0,0,1-.66,0,.59.59,0,0,1-.33-.4c0-.14.2-.34.35-.39a1.81,1.81,0,0,1,.66-.05H47a1.05,1.05,0,0,1,.44,0,2.48,2.48,0,0,1,.5.42c-.17.14-.33.38-.51.4a16.27,16.27,0,0,1-1.71,0Z"/><path class="cls-1" d="M40.47,4.86h6.61a1.05,1.05,0,0,1,.44,0,3.39,3.39,0,0,1,.45.4,2.23,2.23,0,0,1-.44.43,1.23,1.23,0,0,1-.51,0H33.86s-.1,0-.14,0c-.3-.14-.59-.3-.89-.45.29-.14.58-.4.88-.41,2.25,0,4.51,0,6.76,0Z"/><path class="cls-1" d="M40.43,8.14h6.46a2.13,2.13,0,0,1,.67,0c.16.05.4.26.38.34a.74.74,0,0,1-.38.45A1.37,1.37,0,0,1,47,9H33.83a.74.74,0,0,1-.3,0c-.24-.15-.47-.32-.7-.48.23-.14.45-.37.69-.39.81,0,1.63,0,2.45,0Z"/><path class="cls-1" d="M6.38,27.57A1.23,1.23,0,0,1,5.1,28.73a1.22,1.22,0,0,1,.1-2.44A1.24,1.24,0,0,1,6.38,27.57Z"/><path class="cls-1" d="M6.38,31.48a1.23,1.23,0,0,1-1.19,1.26,1.19,1.19,0,0,1-1.26-1.18,1.23,1.23,0,1,1,2.45-.08Z"/><path class="cls-1" d="M6.37,23.51a1.2,1.2,0,0,1-1.22,1.21,1.22,1.22,0,0,1,0-2.43A1.21,1.21,0,0,1,6.37,23.51Z"/></svg>