<svg xmlns="http://www.w3.org/2000/svg" viewBox="0 0 110 110"><defs><style>.cls-1{fill:#fff;}</style></defs><path class="cls-1" d="M109.05,102.38c-1.36-1.14-2.79-2.2-4.06-3.43-6.15-6-12-12.3-18.44-18-7.31-6.4-15.12-12.24-22.76-18.26-2.66-2.1-5.47-4-8.35-6.08a13.76,13.76,0,0,0-.93,1.13A418.46,418.46,0,0,0,28.56,103c-3,6.19-9.68,8.46-15.27,5.31A10.7,10.7,0,0,1,9.48,93.15c4.16-6.73,8.34-13.46,12.87-19.94,5.29-7.57,11-14.87,16.5-22.26.79-1.06,1.74-2,2.75-3.15-.87-.58-1.58-1.14-2.36-1.57C28.42,40.29,17.63,34.29,6.75,28.46.89,25.32-1.41,18.93,1.61,13.38s9.74-7.21,15.46-3.8a353.55,353.55,0,0,1,34.55,23.5c.57.44,1.16.86,1.76,1.31,3.75-3.59,7.36-7.2,11.13-10.63,8.85-8.06,18.21-15.43,29-20.71A62.63,62.63,0,0,1,100,.52a9.54,9.54,0,0,1,2.14-.26c-.23,2.07-1.55,3.17-2.72,4.34-5,5-10.25,9.75-14.94,15C77.91,27,71.79,34.7,65.49,42.29a10.94,10.94,0,0,0-.84,1.28c2.79,2.53,5.65,4.9,8.25,7.52,5.89,6,11.85,11.87,17.43,18.12a105.61,105.61,0,0,1,17.44,26c1,2.13,2,4.27,2,6.68Z"/></svg>