<svg id="Layer_1" data-name="Layer 1" xmlns="http://www.w3.org/2000/svg" viewBox="0 0 120 120"><defs><style>.cls-1{fill:#fff;stroke:#04a4d0;stroke-miterlimit:10;stroke-width:1.13px;}.cls-2{fill:#145da0;}</style></defs><circle class="cls-1" cx="60" cy="60" r="57.5"/><path class="cls-2" d="M87.37,83a9.09,9.09,0,0,0-3.15-7.24,9.27,9.27,0,0,0-7.61-2.19l-.08-1.72c-1,0-2.07,0-3.09,0a1.45,1.45,0,0,1-.86-.31c-2.46-2.29-4.91-4.6-7.48-7,.33,0,.55,0,.76,0,2.23,0,4.46,0,6.7,0,.61,0,1-.4.86-.9s-.52-.55-1-.55h-8.3c-.25,0-.49,0-.78,0,.14-.58.5-.64.94-.64h8.11a1.29,1.29,0,0,0,.81-.26.77.77,0,0,0,.11-.74,1.08,1.08,0,0,0-.76-.43c-2.13,0-4.25,0-6.37,0h-1a.9.9,0,0,1,1-.67c2.08,0,4.16,0,6.24,0,.64,0,1-.26,1-.76s-.45-.73-.94-.74H67.35l-.08-.23a2.53,2.53,0,0,1,.85-.37c1.48,0,3,0,4.44,0,.52,0,.86-.19.87-.71s-.32-.77-.83-.77H69.1l1.74-1.91c.78-.86,1.56-1.71,2.36-2.54.25-.26.58-.44.85-.68.79-.68,1.61-1.34,2.36-2.07A1.54,1.54,0,0,1,77.66,49c2.82.15,5.64.27,8.47.4l1.28.09a1.17,1.17,0,0,0-.15-.35c-1.59-1.59-2.77-3.51-4.23-5.2s-2.83-3.45-4.24-5.18-2.69-3.28-4.05-4.91a1.12,1.12,0,0,0-.69-.37c-3.44-.31-6.87-.62-10.31-.89-1.25-.09-2.52-.07-3.79-.08a110.09,110.09,0,0,0-13.33.87,1.31,1.31,0,0,0-.73.43c-1.36,1.65-2.72,3.31-4,5-.37.47-.74.84-1.46.57l1.39-1.74c1-1.26,2.07-2.52,3.09-3.79A10.7,10.7,0,0,1,51,30a40.31,40.31,0,0,1,19.16.17,10.05,10.05,0,0,1,5.37,3.36c3.41,4.16,6.79,8.35,10.19,12.52.13.16.28.32.41.47a6.51,6.51,0,0,1,7-.86,3.22,3.22,0,0,1,.91.69,1.43,1.43,0,0,1-.21,2.19,6.07,6.07,0,0,1-4.33,1.06l-.74-.07-.21.27a3.94,3.94,0,0,1,.48.18c3.12,1.61,4.43,4.3,4.44,7.68,0,6.2,0,12.4-.05,18.6A7.14,7.14,0,0,1,87.6,83,1.11,1.11,0,0,1,87.37,83Zm2.16-23.68a4.91,4.91,0,0,0-4.93-4.94,5,5,0,0,0-4.88,5,4.92,4.92,0,0,0,4.93,4.88A4.87,4.87,0,0,0,89.53,59.33Z"/><path class="cls-2" d="M33.21,48.27c1.17,1.07,2.31,2.17,3.5,3.21a3.6,3.6,0,0,0,5.36-.28,23.22,23.22,0,0,1,2.14-2.3A3.08,3.08,0,0,0,45,45.82a4.33,4.33,0,0,0-1.43-2.31l-2.89-2.65c-.11-.1-.26-.16-.34-.32a6.41,6.41,0,0,1,3.91.35,8.21,8.21,0,0,1,5.09,9.79.76.76,0,0,0,.27.83Q59.86,61,70,70.45c1.43,1.33,2.86,2.66,4.26,4a1.23,1.23,0,0,0,1.41.34A8.29,8.29,0,0,1,86.43,82.6c0,.15,0,.29,0,.57-1-1-2-1.85-3-2.76A4.67,4.67,0,0,0,80,78.79a3,3,0,0,0-2.23,1c-.87.92-1.65,1.93-2.58,2.78A3.31,3.31,0,0,0,75,86.84c1,1.07,2.06,2,3.11,3.07.31.31.64.61,1,.91L79,91a19.57,19.57,0,0,1-2.43-.17A8.25,8.25,0,0,1,70,80.72a.84.84,0,0,0-.28-1c-5.07-4.68-10.11-9.39-15.17-14.09-3.21-3-6.43-6-9.63-9a.86.86,0,0,0-1-.19,8.28,8.28,0,0,1-10.81-7c0-.38-.06-.75-.08-1.13Z"/><path class="cls-2" d="M43.57,71.86c0,.75,0,1.41,0,2.06a1.37,1.37,0,0,1-.3.79c-2.48,2.71-5,5.39-7.48,8.07a1.31,1.31,0,0,1-.82.35,9,9,0,0,1-3.67-.44A7.16,7.16,0,0,1,26.59,76c0-6.26,0-12.52,0-18.79a7.78,7.78,0,0,1,5.56-7.62,9.68,9.68,0,0,0,2.6,5.51,5,5,0,0,0-2.27,3.68,4.89,4.89,0,0,0,6.56,5.13c2.38-.84,3.44-2.91,3.07-6,.64-.14,1.27-.3,1.91-.42a.57.57,0,0,1,.46.13c.75.78,1.48,1.58,2.22,2.36a2.55,2.55,0,0,0,.47.31l.81.51-.08.17h-.62a.66.66,0,0,0-.73.72.68.68,0,0,0,.74.72c.54,0,1.08,0,1.61,0a1.29,1.29,0,0,1,1.38.69h-2.1a5.61,5.61,0,0,1-.71,0c-.55-.05-.91.22-.91.74s.4.74.93.73c1.33,0,2.66,0,4,0a1,1,0,0,1,.6.13c.75.67,1.46,1.37,2.28,2.15-.26.06-.4.15-.51.11-2.09-.62-3.66.25-5,1.74-.88,1-1.74,2-2.64,2.9a1.08,1.08,0,0,1-.65.29C44.93,71.89,44.31,71.86,43.57,71.86Z"/><path class="cls-2" d="M54.08,67.89l.73-.69L56.72,69l-.62.76a3.47,3.47,0,0,1-.36,4.37c-2.81,3.09-5.65,6.16-8.48,9.23-1.94,2.11-3.9,4.2-5.85,6.31a2.07,2.07,0,0,1-3.17.26c-.94-.8-1.86-1.64-2.73-2.52a2.1,2.1,0,0,1-.06-3.23l11.14-12c1.1-1.19,2.18-2.41,3.3-3.59a3.66,3.66,0,0,1,2.52-1.15,6.86,6.86,0,0,1,1.69.31Z"/><path class="cls-2" d="M70.93,48.74c-.69.76-1.25,1.4-1.83,2-1.65,1.8-3.31,3.58-5,5.38a1.39,1.39,0,0,1-1.16.52c-2,0-3.94,0-5.92,0a1.31,1.31,0,0,1-.8-.27q-2.8-2.59-5.57-5.23a1.53,1.53,0,0,1-.25-.77c0-.11.05-.25.06-.37.19-1.35.19-1.38,1.51-1.41,3.36-.1,6.72-.23,10.07-.22,2.7,0,5.39.2,8.09.32C70.35,48.68,70.54,48.71,70.93,48.74Z"/><path class="cls-2" d="M62.81,62.43l-1.94-1.8,2.21-2.44c2.61-2.81,5.26-5.57,7.81-8.43,1.31-1.46,2.41-3.1,3.65-4.62,1.44-1.77,1.53-1.76,3.17-.26,1.13,1,1.15,1.24.07,2.33a33.63,33.63,0,0,1-3.1,3C71,53.05,68.27,56.82,65,60.08,64.27,60.82,63.58,61.61,62.81,62.43Z"/><path class="cls-2" d="M39.2,40.8l.56.5-5.5,6.77L32.4,45.83c-.1,1.11-.18,2.08-.3,3.05,0,.18-.16.46-.3.5a6.5,6.5,0,0,1-5.59-.75,1.45,1.45,0,0,1-.13-2.41,4.58,4.58,0,0,1,2.75-1.1,7.14,7.14,0,0,1,3.6.43,2.9,2.9,0,0,1,1.63,1.55Z"/><path class="cls-2" d="M78.33,80.62a2.39,2.39,0,0,1,3.52-.27c1,.81,2,1.76,3,2.67A6.85,6.85,0,0,1,78.33,80.62Z"/><path class="cls-2" d="M35.76,49.33c1.3-.07,2.41-.15,3.52-.18s2.22,0,3.39,0c-.84.74-1.36,1.89-2.52,2.34A2.57,2.57,0,0,1,37.67,51C37,50.54,36.49,50,35.76,49.33Z"/><path class="cls-2" d="M59.76,71.84H57.53c-.17-.7-.34-1.35-.5-2a.46.46,0,0,1,.09-.26.78.78,0,0,1,.38.12C58.23,70.37,58.94,71.05,59.76,71.84Z"/><path class="cls-2" d="M62.14,58.18c-.64.81-3.09.81-3.85,0Z"/></svg>