<svg id="Layer_1" data-name="Layer 1" xmlns="http://www.w3.org/2000/svg" viewBox="0 0 250 250"><defs><style>.cls-1{fill:#fff;stroke:#04a4d0;stroke-miterlimit:10;stroke-width:2.32px;}.cls-2{fill:#145da0;}</style></defs><circle class="cls-1" cx="125" cy="125" r="124"/><path class="cls-2" d="M105.39,192.18v-2.09q0-37.23,0-74.47c0-1.87-.51-2.33-2.35-2.33-16,.08-31.95,0-47.92,0-3.71,0-4.94-1.23-4.94-5q0-10.77,0-21.55c0-3.55,1.3-4.85,4.89-4.85q17,0,34.06,0a5.76,5.76,0,0,0,2.57-.42c-.57-.3-1.13-.63-1.71-.92-4.5-2.27-8.74-4.92-12-8.86-2.66-3.23-4.7-6.81-4-11.23.89-5.64,6.52-10.24,12.75-10.68,4.6-.32,8.72,1.11,12.62,3.35,7.51,4.33,13.42,10.47,18.91,17,2.28,2.74,4.41,5.61,6.63,8.43,3.33-4,6.47-8.09,9.84-11.93a62.14,62.14,0,0,1,16.05-13.64c4.58-2.58,9.4-4.07,14.74-2.83s9.61,5.46,10.42,10.36c.5,3.09-.56,5.83-2.09,8.4-3,5-7.52,8.14-12.48,10.83A11.53,11.53,0,0,0,158.34,82h2l34.06,0c4.24,0,5.37,1.12,5.38,5.34q0,10.4,0,20.79c0,4.13-1.12,5.24-5.24,5.25h-2.51c0,.81-.1,1.48-.1,2.16q0,39.74,0,79.47c0,3.82-1.24,5.08-5.05,5.08q-21.45,0-42.91,0c-11.54,0-23.08.14-34.62.13q-23.48,0-46.95-.14c-2.87,0-4.34-1.52-4.35-4.43q0-34.93,0-69.86c0-2.27,1.06-3.79,2.86-4.25a3.75,3.75,0,0,1,4.38,2,7.31,7.31,0,0,1,.44,2.8q0,31.56,0,63.12v2.78Zm39.29-86.53h2.26q12.3,0,24.62,0c2.74,0,4.55,1.57,4.54,3.87s-1.8,3.81-4.58,3.81c-8.21,0-16.42.07-24.63,0-1.89,0-2.32.56-2.31,2.38q.09,37.21,0,74.44v2.06h39.61v-2.4q0-40-.1-80a3.86,3.86,0,0,1,4.06-4.12c1.25,0,2.5,0,3.7,0V89.94H144.68Zm-7.86,86.58c.05-.59.1-1,.1-1.34q0-37.9,0-75.82c0-1.35-.41-1.77-1.76-1.76-6.73.06-13.47.08-20.21,0-1.55,0-1.94.47-1.93,2q.06,37.53,0,75.06c0,.62.06,1.23.09,1.9Zm-31.57-86.68V89.88H58.08v15.67Zm8,0h23.6V89.87H113.2Zm20.06-24.72c3-.64,5.42-1.1,7.81-1.68,7.18-1.76,14.14-4.07,20.34-8.23a17.46,17.46,0,0,0,6.27-6.61c1.15-2.32.76-3.82-1.38-5.28-1.8-1.25-3.88-2-6-1.26a38,38,0,0,0-8.14,3.66c-6.33,4.14-11.26,9.82-16,15.65C135.3,78.13,134.47,79.25,133.26,80.81Zm-16.85-.09a8.09,8.09,0,0,0-.64-1.21c-4-4.44-7.78-9-11.94-13.25A30.55,30.55,0,0,0,91.44,58.1c-2.93-.93-5.68-.77-8.16,1.22-1.71,1.37-2.25,2.71-1,4.52a24.56,24.56,0,0,0,5.43,6.29C96.1,76.37,106.07,78.67,116.41,80.72Z"/></svg>