<svg xmlns="http://www.w3.org/2000/svg" viewBox="0 0 72 72">
    <circle cx="36" cy="36" r="35.5" fill="#002c80" stroke="#fff" stroke-miterlimit="10"/>
    <path fill="#fff" d="M61.72 36a25.72 25.72 0 0 1-51.25 3c-1-8.59 1.83-16 8.15-21.91a2.23 2.23 0 0 1 2.85-.53 2 2 0 0 1 1 2.36 4.14 4.14 0 0 1-1.1 1.61A21.25 21.25 0 1 0 57.25 34.9a20.66 20.66 0 0 0-6.66-14.37 4.1 4.1 0 0 1-1.1-1.75 1.91 1.91 0 0 1 1.07-2.21 2.14 2.14 0 0 1 2.66.39 25.31 25.31 0 0 1 6.62 9.38A24.83 24.83 0 0 1 61.72 36Z"/>
    <path fill="#fff" d="M33.51 18.16c-1.13 1.16-2.25 2.33-3.39 3.47S27.57 23 26.59 22s-.84-2.31.38-3.53c2.43-2.43 4.86-4.87 7.31-7.29a2.2 2.2 0 0 1 3.43 0q3.76 3.72 7.49 7.47a2.3 2.3 0 0 1 .27 3.35c-.95 1-2.3.91-3.44-.21a40 40 0 0 0-3.84-3.51V38.18a2.16 2.16 0 0 1-2.93 2.24A2.23 2.23 0 0 1 33.8 38V18.37Z"/>
</svg>
