<svg xmlns="http://www.w3.org/2000/svg" xmlns:xlink="http://www.w3.org/1999/xlink" viewBox="0 0 256 256"><defs><style>.cls-1{fill:none;}.cls-2{fill:#002c80;}.cls-3{fill:#fff;}.cls-4{fill:#04a4d0;}.cls-5{clip-path:url(#clip-path);}.cls-6{clip-path:url(#clip-path-2);}.cls-7{fill:#145da0;}.cls-8{fill:#39b54a;}</style><clipPath id="clip-path"><rect class="cls-1" x="198.97" y="95.58" width="11.42" height="11.49"/></clipPath><clipPath id="clip-path-2"><rect class="cls-1" x="146.42" y="31.93" width="9.85" height="9.47"/></clipPath></defs><path class="cls-2" d="M128,0A128,128,0,1,0,256,128,128,128,0,0,0,128,0"/><path class="cls-3" d="M128,4.85A123.15,123.15,0,1,0,251.15,128,123.15,123.15,0,0,0,128,4.85"/><path class="cls-4" d="M205.78,65.3a2.66,2.66,0,0,1,.17.63,2.81,2.81,0,0,1,0,.65,3.61,3.61,0,0,1-.08.65,3.14,3.14,0,0,1-.21.61,4,4,0,0,1-.33.57,3.35,3.35,0,0,1-.43.49,3.21,3.21,0,0,1-.52.39,2.69,2.69,0,0,1-.59.29,3.25,3.25,0,0,1-.63.17,3.49,3.49,0,0,1-.65,0,3.4,3.4,0,0,1-.64-.09,3.32,3.32,0,0,1-1.19-.54,4,4,0,0,1-.49-.43,2.83,2.83,0,0,1-.39-.52,3.39,3.39,0,0,1-.46-1.22,3.5,3.5,0,0,1,0-.65,2.89,2.89,0,0,1,.08-.65,3.39,3.39,0,0,1,.21-.61,5.3,5.3,0,0,1,.33-.57,3.42,3.42,0,0,1,.44-.49,3.14,3.14,0,0,1,.51-.39,3.58,3.58,0,0,1,.59-.29,3.42,3.42,0,0,1,.63-.16,3.56,3.56,0,0,1,.65,0,3.63,3.63,0,0,1,.65.09,2.79,2.79,0,0,1,.61.22,2.39,2.39,0,0,1,.56.32,3.35,3.35,0,0,1,.49.43,4,4,0,0,1,.4.52A2.91,2.91,0,0,1,205.78,65.3Z"/><g class="cls-5"><path class="cls-4" d="M209.64,99.32a4.9,4.9,0,0,1,.26,1,5.2,5.2,0,0,1,.07,1,5.11,5.11,0,0,1-.14,1,5.47,5.47,0,0,1-.86,1.88,6.41,6.41,0,0,1-.69.78,5.6,5.6,0,0,1-.83.62,4.73,4.73,0,0,1-.93.46,5.08,5.08,0,0,1-1,.26,5.2,5.2,0,0,1-1,.07,5.94,5.94,0,0,1-1-.14,5.68,5.68,0,0,1-1-.34,5.36,5.36,0,0,1-.89-.53,5.59,5.59,0,0,1-.78-.68,6.25,6.25,0,0,1-.63-.83,5.41,5.41,0,0,1-.45-.94,4.9,4.9,0,0,1-.26-1,5.15,5.15,0,0,1,.07-2.07,5,5,0,0,1,.34-1,6.19,6.19,0,0,1,.52-.9,5.06,5.06,0,0,1,.69-.77,4.65,4.65,0,0,1,.83-.63,5.06,5.06,0,0,1,1.93-.72,4.54,4.54,0,0,1,1-.06,4.4,4.4,0,0,1,1,.14,5,5,0,0,1,1,.34,5.3,5.3,0,0,1,.89.52,5.07,5.07,0,0,1,.78.69,6.37,6.37,0,0,1,.63.82A5.41,5.41,0,0,1,209.64,99.32Z"/></g><g class="cls-6"><path class="cls-4" d="M155.51,35a4.28,4.28,0,0,1,.23.85,5.32,5.32,0,0,1,0,.89,4.34,4.34,0,0,1-.12.87,4.9,4.9,0,0,1-.29.84,4.83,4.83,0,0,1-.44.76,4.64,4.64,0,0,1-.59.66,4.44,4.44,0,0,1-.7.53,4,4,0,0,1-.8.39A4.08,4.08,0,0,1,152,41a5.21,5.21,0,0,1-.88.06,4.93,4.93,0,0,1-.87-.13,3.63,3.63,0,0,1-.84-.29,3.85,3.85,0,0,1-.76-.44,4.57,4.57,0,0,1-.66-.58,4.52,4.52,0,0,1-.53-.71,4.83,4.83,0,0,1-.39-.79,4.93,4.93,0,0,1-.22-.86,3.69,3.69,0,0,1,0-.88,4.15,4.15,0,0,1,.12-.87,4.87,4.87,0,0,1,.28-.84,5.24,5.24,0,0,1,.45-.76,4.57,4.57,0,0,1,.58-.66,5.31,5.31,0,0,1,.71-.54,4.42,4.42,0,0,1,.79-.38,4.28,4.28,0,0,1,.85-.23,5.26,5.26,0,0,1,.88,0,4.34,4.34,0,0,1,.88.12,4.8,4.8,0,0,1,.83.29,4.51,4.51,0,0,1,.77.44,7.32,7.32,0,0,1,.66.59,4.68,4.68,0,0,1,.53.71A4.42,4.42,0,0,1,155.51,35Z"/></g><path class="cls-4" d="M186.14,44.72a7.72,7.72,0,0,1,.38,1.43,7.58,7.58,0,0,1-.11,3,7.75,7.75,0,0,1-.49,1.4,7.1,7.1,0,0,1-.74,1.28,7.42,7.42,0,0,1-1,1.11,6.94,6.94,0,0,1-1.18.9,7.12,7.12,0,0,1-1.33.65,7.72,7.72,0,0,1-1.43.38,9.12,9.12,0,0,1-1.48.09,8.24,8.24,0,0,1-1.47-.2,8,8,0,0,1-1.4-.49,7.51,7.51,0,0,1-1.28-.75,6.83,6.83,0,0,1-1.1-1,7.83,7.83,0,0,1-.9-1.18A7.44,7.44,0,0,1,172,50a7.25,7.25,0,0,1-.37-1.44,7.36,7.36,0,0,1-.09-1.48,7.23,7.23,0,0,1,.2-1.47,7,7,0,0,1,.48-1.4,7.4,7.4,0,0,1,.75-1.28,7,7,0,0,1,1-1.11,7.36,7.36,0,0,1,1.18-.9,7.79,7.79,0,0,1,1.33-.65,8,8,0,0,1,1.44-.38,9.07,9.07,0,0,1,1.47-.09,7.24,7.24,0,0,1,1.47.21,7,7,0,0,1,1.4.48,7.8,7.8,0,0,1,1.28.75,7.36,7.36,0,0,1,2,2.16A7.53,7.53,0,0,1,186.14,44.72Z"/><path class="cls-4" d="M190.52,86.17a9.15,9.15,0,0,1,1.85-.48,8.76,8.76,0,0,1,1.91-.12,9.25,9.25,0,0,1,1.89.26,9.87,9.87,0,0,1,3.47,1.58,9.94,9.94,0,0,1,2.59,2.79,9.44,9.44,0,0,1,.84,1.72,15.44,15.44,0,0,0-.33-3.59,15.08,15.08,0,0,0-1.13-3.42,15.39,15.39,0,0,0-1.88-3.08,15.77,15.77,0,0,0-2.53-2.57,12.36,12.36,0,0,0-.28-3.09,12.71,12.71,0,0,0-1-2.92,12.64,12.64,0,0,0-4-4.64,22.14,22.14,0,0,0-1.21-10.67,22.85,22.85,0,0,0-2.09-4.2,14.24,14.24,0,0,1-.23,5,14.08,14.08,0,0,1-2,4.64,13.79,13.79,0,0,1-1.59,2,14.48,14.48,0,0,1-1.92,1.66,14,14,0,0,1-2.18,1.28,14.43,14.43,0,0,1-2.38.87,13.24,13.24,0,0,1-2.49.43,14.37,14.37,0,0,1-2.54,0,14.88,14.88,0,0,1-2.48-.48,13.75,13.75,0,0,1-2.36-.92,14.08,14.08,0,0,1-2.16-1.33,13.74,13.74,0,0,1-1.88-1.69,14.42,14.42,0,0,1-1.56-2,15,15,0,0,1-1.16-2.25,13.89,13.89,0,0,1-.74-2.43,14,14,0,0,1-.14-5,14.77,14.77,0,0,1,.62-2.46,14.09,14.09,0,0,1,2.48-4.4,15.13,15.13,0,0,1,1.79-1.79,14.92,14.92,0,0,1,2.09-1.44,22.32,22.32,0,0,0-13,5.63,8.44,8.44,0,0,1-.28,1.1,8.84,8.84,0,0,1-1,2.07,8.39,8.39,0,0,1-.67.93c-.24.29-.5.56-.77.83a8.75,8.75,0,0,1-.89.72,8.58,8.58,0,0,1-1,.6,8.8,8.8,0,0,1-2.13.82,8.18,8.18,0,0,1-1.12.19,8.55,8.55,0,0,1-1.13.05,8.77,8.77,0,0,1-1.14-.1,7.09,7.09,0,0,1-1.11-.24,8.13,8.13,0,0,1-1.08-.38,10.72,10.72,0,0,1-1-.52,8.64,8.64,0,0,1-.94-.64,8.37,8.37,0,0,1-1.59-1.63,8.69,8.69,0,0,1-.63-.95,9.06,9.06,0,0,1-.87-2.1,8.53,8.53,0,0,1-.22-1.12,8.7,8.7,0,0,1,0-2.28,11,11,0,0,1,.21-1.12,9.77,9.77,0,0,1,.36-1.08,8.08,8.08,0,0,1,.49-1,8.25,8.25,0,0,1,.62-1,8.27,8.27,0,0,1,1.57-1.63,8.89,8.89,0,0,1,1.95-1.19,18.08,18.08,0,0,0-2.92-.63,17.51,17.51,0,0,0-6,.23,17.78,17.78,0,0,0-7.94,4,18.36,18.36,0,0,0-2.08,2.15,18.91,18.91,0,0,0-1.69,2.47c-19.29-.44-36.22,7.17-44.14,21.88a37.91,37.91,0,0,0-4.48,18,47.33,47.33,0,0,1,9.5-1,40.23,40.23,0,0,1,3.41-8.52c6.73-12.5,19.21-20.2,33.42-22.24,0,.55,0,1.1,0,1.65s.09,1.09.18,1.63.19,1.08.32,1.61.3,1.06.48,1.58.39,1,.62,1.52.48,1,.76,1.46.57.93.89,1.38a15.94,15.94,0,0,0,1,1.29c.36.42.74.81,1.13,1.2s.81.74,1.24,1.08.87.66,1.33,1,.93.58,1.41.84,1,.49,1.49.69,1,.4,1.54.57,1,.29,1.59.41,1.07.2,1.62.26a14.13,14.13,0,0,0,.46,1.57,13.21,13.21,0,0,0,1.91,3.48c.27.36.55.69.85,1s.62.63.95.93.68.57,1,.83a13.14,13.14,0,0,0,1.11.72,12,12,0,0,0,1.18.62,13.12,13.12,0,0,0,1.23.49,10.89,10.89,0,0,0,1.27.37,11.47,11.47,0,0,0,1.3.25q.66.09,1.32.12c.44,0,.88,0,1.32,0s.89-.07,1.32-.14.87-.16,1.3-.27.85-.25,1.26-.4a14.19,14.19,0,0,0,1.81-.84,22.85,22.85,0,0,0,3.74,2.66,21.57,21.57,0,0,0,4.2,1.86,22.29,22.29,0,0,0,9.08,1,15.21,15.21,0,0,0-.29,1.64c-.06.55-.1,1.1-.11,1.65a15.44,15.44,0,0,0,.06,1.66c.05.55.13,1.09.23,1.64a16.08,16.08,0,0,0,1,3.16,13.62,13.62,0,0,0,.72,1.49,15.81,15.81,0,0,0,.88,1.41c.32.45.66.88,1,1.3a14.39,14.39,0,0,0,1.15,1.19,16,16,0,0,0,1.27,1.07,14.39,14.39,0,0,0,1.38.92,13.63,13.63,0,0,0,1.46.78,14.4,14.4,0,0,0,1.53.62c.52.18,1.06.33,1.59.46s1.09.22,1.63.29a41.4,41.4,0,0,1-4.85,21.56c-9,16.7-28.23,24.84-48.16,22.32,25.62,6.31,50.35-.91,60.45-19.67,4.38-8.14,5.44-17.39,3.65-26.73a9.19,9.19,0,0,1-1.82.27,10.31,10.31,0,0,1-1.84-.08,10.11,10.11,0,0,1-1.79-.42,10.5,10.5,0,0,1-1.68-.75,9.79,9.79,0,0,1-4.91-7.41,9.43,9.43,0,0,1,0-1.84,10.17,10.17,0,0,1,.3-1.82,9.75,9.75,0,0,1,.65-1.73,10.19,10.19,0,0,1,.95-1.58,10.65,10.65,0,0,1,1.23-1.37A10.49,10.49,0,0,1,188.89,87a9.06,9.06,0,0,1,1.65-.82Z"/><path class="cls-7" d="M108.53,125.17a22.68,22.68,0,0,0-6.35-12.75h57.29a3.11,3.11,0,0,0,.68,0,3,3,0,0,0,.65-.17,4.2,4.2,0,0,0,.6-.3,4.45,4.45,0,0,0,.53-.42,3,3,0,0,0,.43-.52,3.08,3.08,0,0,0,.33-.59,3.65,3.65,0,0,0,.2-.64,3.29,3.29,0,0,0,0-1.35,3.65,3.65,0,0,0-.2-.64,3.08,3.08,0,0,0-.33-.59,3,3,0,0,0-.43-.52,3.56,3.56,0,0,0-.53-.41,2.85,2.85,0,0,0-.6-.31,3,3,0,0,0-.65-.17,3.89,3.89,0,0,0-.68,0H86c-.67,0-1.34,0-2,.1s-1.34.16-2,.28-1.31.27-2,.45-1.29.39-1.92.63-1.25.5-1.85.79-1.2.61-1.78,1-1.14.72-1.68,1.11a19,19,0,0,0-1.58,1.26c-.51.44-1,.9-1.46,1.39s-.91,1-1.33,1.51-.82,1.07-1.19,1.63-.72,1.14-1,1.73-.62,1.2-.89,1.82-.51,1.24-.72,1.88-.39,1.29-.55,1.94-.28,1.32-.37,2H57.93a1.06,1.06,0,0,1-.78-.34,1.1,1.1,0,0,1-.23-.37,1,1,0,0,1-.06-.43c.38-5.23,1.27-10.79,3.36-15.52,2.39-5.4,7.33-12.6,22.58-12.65h18.54c7,0,11.86-5,17.52-10.8,4.12-4.23,8.6-8.81,13.87-11.69a17.76,17.76,0,0,1-8.88-5.5c-10.48,7.52-17.17,18.58-22.51,18.58,0,0-13.29,0-18.58,0-32.28.16-35.27,26.8-35.55,43.43a5.59,5.59,0,0,0,.08.91,5.5,5.5,0,0,0,.25.88,4.83,4.83,0,0,0,.43.81,4.4,4.4,0,0,0,.57.72,5.53,5.53,0,0,0,.7.58,4.56,4.56,0,0,0,.81.44,4.39,4.39,0,0,0,.87.27,4.78,4.78,0,0,0,.92.09H64.3a22.44,22.44,0,0,0,3.1,6.62,22.14,22.14,0,0,0,5,5.3,23.08,23.08,0,0,0,6.46,3.41,22.73,22.73,0,0,0,3.55.88,22.42,22.42,0,0,0,7.31,0,22.73,22.73,0,0,0,3.55-.88,21.39,21.39,0,0,0,3.37-1.45,22.08,22.08,0,0,0,3.09-2,22.14,22.14,0,0,0,5-5.3,22.44,22.44,0,0,0,3.1-6.62h68.8a40.62,40.62,0,0,0,5.5-9.41ZM86.1,141.7q-.64,0-1.29-.06c-.44,0-.87-.11-1.29-.19a13.75,13.75,0,0,1-2.49-.76,12.55,12.55,0,0,1-1.17-.56,11.43,11.43,0,0,1-1.12-.67,14.86,14.86,0,0,1-2-1.65c-.3-.31-.6-.63-.87-1a11.17,11.17,0,0,1-.77-1c-.24-.37-.47-.74-.67-1.12a13.13,13.13,0,0,1-1-2.41,12.87,12.87,0,0,1-.31-1.26,11.47,11.47,0,0,1-.19-1.29,12.11,12.11,0,0,1,0-2.6,11.47,11.47,0,0,1,.19-1.29,12.87,12.87,0,0,1,.31-1.26c.13-.42.28-.83.44-1.23a13.61,13.61,0,0,1,1.23-2.3c.24-.36.5-.71.77-1s.57-.66.87-1a14.86,14.86,0,0,1,2-1.65,12.74,12.74,0,0,1,1.12-.67,12.55,12.55,0,0,1,1.17-.56c.41-.17.81-.31,1.23-.44s.84-.23,1.26-.32.86-.15,1.29-.19.87-.06,1.3-.07.86,0,1.3.07a11.47,11.47,0,0,1,1.29.19,11.63,11.63,0,0,1,1.26.32,11.06,11.06,0,0,1,1.22.43,12.73,12.73,0,0,1,1.18.56,11.27,11.27,0,0,1,1.11.67,11.82,11.82,0,0,1,1,.77c.34.28.66.57,1,.88a11.41,11.41,0,0,1,.87,1,10.2,10.2,0,0,1,.78,1,12.58,12.58,0,0,1,.67,1.11,12.73,12.73,0,0,1,.56,1.18c.17.4.31.81.44,1.22s.23.84.32,1.27.15.85.19,1.29.07.86.07,1.3,0,.87-.07,1.3a13,13,0,0,1-.51,2.56,12.22,12.22,0,0,1-1,2.41c-.21.38-.43.76-.67,1.12a13,13,0,0,1-.78,1.05,12,12,0,0,1-1.84,1.84,10.2,10.2,0,0,1-1,.78,12.58,12.58,0,0,1-1.11.67c-.39.21-.78.39-1.18.56a10.58,10.58,0,0,1-1.23.44c-.41.13-.84.23-1.26.32s-.86.15-1.29.19A11.49,11.49,0,0,1,86.1,141.7Z"/><path class="cls-8" d="M29.68,163l3-6.44h5.08l-5.71,10.6V174H27.32v-6.64L21.6,156.58h5.11Z"/><path class="cls-8" d="M52.23,167.2a7.19,7.19,0,0,1-1.78,5.16,6.58,6.58,0,0,1-5,1.85,6.4,6.4,0,0,1-4.87-1.89,8.22,8.22,0,0,1,0-10.24,6.63,6.63,0,0,1,5-1.83,7,7,0,0,1,3.5.85,5.72,5.72,0,0,1,2.35,2.42A7.83,7.83,0,0,1,52.23,167.2Zm-8.72,0a5.92,5.92,0,0,0,.46,2.64,1.6,1.6,0,0,0,1.55.91,1.55,1.55,0,0,0,1.53-.91,6.09,6.09,0,0,0,.45-2.64,5.86,5.86,0,0,0-.45-2.6,1.79,1.79,0,0,0-3.08,0A5.8,5.8,0,0,0,43.51,167.2Z"/><path class="cls-8" d="M64.47,174l-.58-1.68h-.28A3.73,3.73,0,0,1,62,173.72a5.79,5.79,0,0,1-2.45.49,4.55,4.55,0,0,1-3.46-1.3,5.08,5.08,0,0,1-1.23-3.64v-8.78h4.66v7.37a4.26,4.26,0,0,0,.37,2,1.28,1.28,0,0,0,1.23.66,1.79,1.79,0,0,0,1.7-.93,7.21,7.21,0,0,0,.52-3.2v-5.9H68V174Z"/><path class="cls-8" d="M79.31,160.25a6.26,6.26,0,0,1,1.16.1l.25.05-.41,4.39a6.49,6.49,0,0,0-1.57-.15,3,3,0,0,0-2.22.7,2.72,2.72,0,0,0-.7,2V174H71.18V160.49h3.46l.72,2.16h.23a4.57,4.57,0,0,1,1.62-1.73A3.85,3.85,0,0,1,79.31,160.25Z"/><path class="cls-8" d="M94.24,168.69a5.16,5.16,0,0,1-.82,2.87,5.4,5.4,0,0,1-2.36,1.95,8.84,8.84,0,0,1-3.63.7,14.9,14.9,0,0,1-2.92-.25,10.75,10.75,0,0,1-2.45-.86v-4.18a14.21,14.21,0,0,0,2.8,1.08,10.72,10.72,0,0,0,2.67.38,2.56,2.56,0,0,0,1.52-.36,1.09,1.09,0,0,0,.49-.93,1,1,0,0,0-.19-.62,2.2,2.2,0,0,0-.63-.54c-.29-.18-1.06-.56-2.31-1.13a10.79,10.79,0,0,1-2.55-1.48,4.89,4.89,0,0,1-1.26-1.67,5.65,5.65,0,0,1-.41-2.23,4.43,4.43,0,0,1,1.75-3.74,7.7,7.7,0,0,1,4.79-1.34,13.48,13.48,0,0,1,5.51,1.24l-1.44,3.63a10.42,10.42,0,0,0-4.21-1.13,2.08,2.08,0,0,0-1.33.34,1,1,0,0,0-.41.79,1.15,1.15,0,0,0,.52.91,20.26,20.26,0,0,0,2.88,1.48,8.15,8.15,0,0,1,3.12,2.16A4.74,4.74,0,0,1,94.24,168.69Z"/><path class="cls-8" d="M103.15,174.21a7.23,7.23,0,0,1-5.22-1.79,6.75,6.75,0,0,1-1.86-5.1,7.34,7.34,0,0,1,1.72-5.24,7.63,7.63,0,0,1,9.62-.24,6,6,0,0,1,1.67,4.58v2.06h-8.31a2.24,2.24,0,0,0,.82,1.77,3.24,3.24,0,0,0,2.13.65,10.42,10.42,0,0,0,2.24-.23,11.3,11.3,0,0,0,2.24-.8v3.35a8.63,8.63,0,0,1-2.26.77A15.94,15.94,0,0,1,103.15,174.21Zm-.26-10.79a1.93,1.93,0,0,0-1.38.52,2.47,2.47,0,0,0-.65,1.62h4a2.27,2.27,0,0,0-.56-1.55A1.82,1.82,0,0,0,102.89,163.42Z"/><path class="cls-8" d="M119.83,160.25a6.08,6.08,0,0,1,1.15.1l.26.05-.41,4.39a6.52,6.52,0,0,0-1.58-.15,3,3,0,0,0-2.22.7,2.71,2.71,0,0,0-.69,2V174H111.7V160.49h3.46l.72,2.16h.23a4.49,4.49,0,0,1,1.62-1.73A3.85,3.85,0,0,1,119.83,160.25Z"/><path class="cls-8" d="M126.65,174l-5.13-13.47h4.84l2.29,8a.8.8,0,0,0,0,.2c0,.1,0,.21.06.34s.05.27.07.42a3.18,3.18,0,0,1,0,.4h.07a4.56,4.56,0,0,1,.22-1.34l2.39-8h4.83L131.25,174Z"/><path class="cls-8" d="M142.66,174H138V160.49h4.65Zm-4.76-16.82a2,2,0,0,1,.58-1.56,3.71,3.71,0,0,1,3.77,0,2,2,0,0,1,.59,1.55c0,1.36-.83,2-2.48,2S137.9,158.5,137.9,157.14Z"/><path class="cls-8" d="M152,174.21a6.6,6.6,0,0,1-5-1.79,7.09,7.09,0,0,1,5.38-12.17,9.72,9.72,0,0,1,4.41,1l-1.37,3.43c-.57-.24-1.09-.44-1.57-.59a5.13,5.13,0,0,0-1.47-.22,2,2,0,0,0-1.75.89,4.27,4.27,0,0,0-.61,2.48c0,2.15.79,3.23,2.38,3.23a7.29,7.29,0,0,0,3.93-1.18V173A7.62,7.62,0,0,1,152,174.21Z"/><path class="cls-8" d="M165.53,174.21a7.23,7.23,0,0,1-5.22-1.79,6.75,6.75,0,0,1-1.86-5.1,7.34,7.34,0,0,1,1.72-5.24,6.41,6.41,0,0,1,4.92-1.83,6.52,6.52,0,0,1,4.7,1.59,6,6,0,0,1,1.66,4.58v2.06h-8.31a2.27,2.27,0,0,0,.82,1.77,3.24,3.24,0,0,0,2.13.65,10.58,10.58,0,0,0,2.25-.23,11.45,11.45,0,0,0,2.23-.8v3.35a8.51,8.51,0,0,1-2.26.77A15.82,15.82,0,0,1,165.53,174.21Zm-.27-10.79a1.89,1.89,0,0,0-1.37.52,2.48,2.48,0,0,0-.66,1.62h4a2.22,2.22,0,0,0-.56-1.55A1.8,1.8,0,0,0,165.26,163.42Z"/><path class="cls-8" d="M193.12,174h-5.55l-1.67-7.57c-.08-.31-.2-.94-.37-1.88s-.3-1.74-.38-2.38c-.07.52-.17,1.16-.32,1.93s-.27,1.46-.41,2.1-.71,3.24-1.73,7.8h-5.55l-4.3-17.38h4.53l1.88,8.71c.43,1.93.73,3.47.89,4.61.1-.81.28-1.9.55-3.29s.51-2.54.74-3.45l1.53-6.58h4.36l1.48,6.58c.25,1.05.51,2.27.77,3.64s.44,2.41.52,3.1c.11-.88.39-2.41.85-4.58l1.92-8.74h4.53Z"/><path class="cls-8" d="M208.15,174l-.9-1.78h-.09a5.28,5.28,0,0,1-1.91,1.6,6.43,6.43,0,0,1-2.53.43,3.93,3.93,0,0,1-3-1.15,4.5,4.5,0,0,1-1.09-3.22,3.66,3.66,0,0,1,1.49-3.19,8.25,8.25,0,0,1,4.35-1.19l2.25-.07v-.19a1.47,1.47,0,0,0-1.65-1.67,9.9,9.9,0,0,0-3.74,1L200,161.47a12.94,12.94,0,0,1,5.95-1.22,5.75,5.75,0,0,1,4,1.29,4.58,4.58,0,0,1,1.42,3.58V174Zm-3.45-3a2.12,2.12,0,0,0,1.45-.54,1.77,1.77,0,0,0,.6-1.38V168l-1.08.05c-1.53.05-2.29.61-2.29,1.68C203.38,170.51,203.82,170.92,204.7,170.92Z"/><path class="cls-8" d="M219.17,174h-4.64v-18.5h4.64Z"/><path class="cls-8" d="M231.18,174l-.89-1.78h-.09a5.38,5.38,0,0,1-1.92,1.6,6.41,6.41,0,0,1-2.52.43,3.9,3.9,0,0,1-3-1.15,4.45,4.45,0,0,1-1.09-3.22,3.63,3.63,0,0,1,1.49-3.19,8.24,8.24,0,0,1,4.34-1.19l2.25-.07v-.19a1.47,1.47,0,0,0-1.64-1.67,9.94,9.94,0,0,0-3.75,1L223,161.47a12.91,12.91,0,0,1,5.95-1.22,5.73,5.73,0,0,1,4,1.29,4.58,4.58,0,0,1,1.42,3.58V174Zm-3.45-3a2.09,2.09,0,0,0,1.45-.54,1.78,1.78,0,0,0,.61-1.38V168l-1.08.05c-1.54.05-2.3.61-2.3,1.68C226.41,170.51,226.85,170.92,227.73,170.92Z"/><path class="cls-7" d="M57.45,188.71l-.26,3.38H55.92l-.26-3.38Zm2.7,0-.25,3.38H58.63l-.26-3.38Z"/><path class="cls-7" d="M66.16,198.08l-2.26-7.36h-.06c.08,1.5.13,2.5.13,3v4.36H62.18v-9.37h2.71l2.22,7.17h0l2.36-7.17h2.71v9.37H70.36v-4.43c0-.22,0-.46,0-.74s0-1,.09-2.18h-.07L68,198.08Z"/><path class="cls-7" d="M79,198.08l-.38-1h0a2.93,2.93,0,0,1-1,.86,3.28,3.28,0,0,1-1.36.24,2.19,2.19,0,0,1-1.63-.59,2.24,2.24,0,0,1-.59-1.68,1.89,1.89,0,0,1,.79-1.68,4.59,4.59,0,0,1,2.41-.6l1.25,0v-.32a1,1,0,0,0-1.12-1.09,5.15,5.15,0,0,0-2,.52l-.66-1.32a5.9,5.9,0,0,1,2.75-.65,3.42,3.42,0,0,1,2.22.63,2.34,2.34,0,0,1,.77,1.91v4.78Zm-.58-3.32-.76,0a2.46,2.46,0,0,0-1.27.31A1,1,0,0,0,76,196c0,.55.32.83,1,.83a1.49,1.49,0,0,0,1.08-.39,1.39,1.39,0,0,0,.41-1Z"/><path class="cls-7" d="M84.23,194.18l.85-1.09,2-2.18H89.3L86.45,194l3,4.06H87.21l-2.07-2.91-.83.68v2.23h-2v-10h2v4.46l-.11,1.62Z"/><path class="cls-7" d="M93.46,192.17a1.25,1.25,0,0,0-1,.4,1.78,1.78,0,0,0-.4,1.11h2.74a1.57,1.57,0,0,0-.38-1.11A1.28,1.28,0,0,0,93.46,192.17Zm.27,6a3.68,3.68,0,0,1-2.7-1,3.64,3.64,0,0,1-1-2.72,4,4,0,0,1,.9-2.78,3.23,3.23,0,0,1,2.5-1,3.13,3.13,0,0,1,2.36.87,3.25,3.25,0,0,1,.85,2.39V195H92a1.89,1.89,0,0,0,.49,1.31,1.74,1.74,0,0,0,1.29.46,5.48,5.48,0,0,0,1.24-.13,6.72,6.72,0,0,0,1.2-.43v1.51a4.47,4.47,0,0,1-1.1.38A6.46,6.46,0,0,1,93.73,198.21Z"/><path class="cls-7" d="M104.74,192.57l2-3.86h2.14l-3.1,5.72v3.65h-2v-3.59l-3.12-5.78h2.16Z"/><path class="cls-7" d="M111.42,194.48a3,3,0,0,0,.35,1.62,1.23,1.23,0,0,0,1.14.53,1.19,1.19,0,0,0,1.11-.53,3,3,0,0,0,.35-1.62,2.93,2.93,0,0,0-.35-1.59,1.24,1.24,0,0,0-1.13-.54,1.23,1.23,0,0,0-1.12.54A2.84,2.84,0,0,0,111.42,194.48Zm5,0a3.86,3.86,0,0,1-.92,2.74,3.32,3.32,0,0,1-2.57,1,3.65,3.65,0,0,1-1.83-.45,3,3,0,0,1-1.21-1.3,4.44,4.44,0,0,1-.42-2,3.83,3.83,0,0,1,.91-2.73,3.39,3.39,0,0,1,2.59-1,3.57,3.57,0,0,1,1.81.45,3,3,0,0,1,1.22,1.3A4.29,4.29,0,0,1,116.37,194.48Z"/><path class="cls-7" d="M123.06,198.08l-.25-.92h-.1a2.21,2.21,0,0,1-.9.78,3.07,3.07,0,0,1-1.31.27,2.46,2.46,0,0,1-1.91-.68,2.71,2.71,0,0,1-.64-1.95v-4.67h2v4.19a2,2,0,0,0,.27,1.16,1,1,0,0,0,.88.39,1.31,1.31,0,0,0,1.18-.54,3.36,3.36,0,0,0,.38-1.82v-3.38h1.95v7.17Z"/><path class="cls-7" d="M130.62,190.77a2.6,2.6,0,0,1,.67.07l-.16,1.83a2.35,2.35,0,0,0-.58-.06,2.09,2.09,0,0,0-1.46.48,1.76,1.76,0,0,0-.51,1.34v3.65h-2v-7.17h1.48l.29,1.21h.1a2.73,2.73,0,0,1,.9-1A2.22,2.22,0,0,1,130.62,190.77Z"/><path class="cls-7" d="M140.13,190.22a2,2,0,0,0-1.74.85,3.9,3.9,0,0,0-.62,2.34c0,2.1.79,3.15,2.36,3.15a7.4,7.4,0,0,0,2.39-.5v1.67a6.66,6.66,0,0,1-2.58.48,3.94,3.94,0,0,1-3.13-1.24,5.29,5.29,0,0,1-1.08-3.57,5.84,5.84,0,0,1,.53-2.55,3.87,3.87,0,0,1,1.53-1.69,4.45,4.45,0,0,1,2.34-.59,6.34,6.34,0,0,1,2.75.66l-.64,1.62a8.92,8.92,0,0,0-1.07-.44A3,3,0,0,0,140.13,190.22Z"/><path class="cls-7" d="M148.91,198.08l-.37-1h0a3,3,0,0,1-1,.86,3.22,3.22,0,0,1-1.36.24,2.22,2.22,0,0,1-1.63-.59,2.28,2.28,0,0,1-.59-1.68,1.89,1.89,0,0,1,.8-1.68,4.59,4.59,0,0,1,2.41-.6l1.25,0v-.32a1,1,0,0,0-1.12-1.09,5.15,5.15,0,0,0-2,.52l-.66-1.32a5.9,5.9,0,0,1,2.75-.65,3.45,3.45,0,0,1,2.22.63,2.34,2.34,0,0,1,.77,1.91v4.78Zm-.57-3.32-.76,0a2.43,2.43,0,0,0-1.27.31.94.94,0,0,0-.41.85c0,.55.31.83.95.83a1.49,1.49,0,0,0,1.08-.39,1.39,1.39,0,0,0,.41-1Z"/><path class="cls-7" d="M156.29,190.77a2.55,2.55,0,0,1,.67.07l-.15,1.83a2.4,2.4,0,0,0-.58-.06,2.07,2.07,0,0,0-1.46.48,1.73,1.73,0,0,0-.52,1.34v3.65h-2v-7.17h1.49l.28,1.21h.1a2.82,2.82,0,0,1,.9-1A2.27,2.27,0,0,1,156.29,190.77Z"/><path class="cls-7" d="M167.36,195.48a2.42,2.42,0,0,1-.92,2,4,4,0,0,1-2.54.73,5.94,5.94,0,0,1-2.66-.56V195.8a10.49,10.49,0,0,0,1.61.6,4.56,4.56,0,0,0,1.2.17,1.74,1.74,0,0,0,1-.24.88.88,0,0,0,.36-.76.86.86,0,0,0-.15-.49,1.71,1.71,0,0,0-.46-.41,11.72,11.72,0,0,0-1.21-.64,5.62,5.62,0,0,1-1.3-.77,3,3,0,0,1-.68-.86,2.52,2.52,0,0,1-.25-1.17,2.43,2.43,0,0,1,.83-1.95,3.55,3.55,0,0,1,2.34-.71,5.3,5.3,0,0,1,1.39.18,8.52,8.52,0,0,1,1.39.48l-.64,1.54a9.14,9.14,0,0,0-1.25-.42,4,4,0,0,0-1-.13,1.28,1.28,0,0,0-.87.27,1,1,0,0,0-.18,1.14,1.49,1.49,0,0,0,.4.39,11.1,11.1,0,0,0,1.26.65,5,5,0,0,1,1.8,1.26A2.42,2.42,0,0,1,167.36,195.48Z"/><path class="cls-7" d="M175.33,198.08h-2v-4.19a2.15,2.15,0,0,0-.25-1.16.93.93,0,0,0-.82-.39,1.18,1.18,0,0,0-1.09.55,3.59,3.59,0,0,0-.34,1.82v3.37h-2v-7.17h1.5l.26.91h.11a2,2,0,0,1,.82-.77,2.85,2.85,0,0,1,1.26-.28,2.26,2.26,0,0,1,2.18,1h.18a1.88,1.88,0,0,1,.85-.77,2.89,2.89,0,0,1,1.27-.28,2.45,2.45,0,0,1,1.83.63,2.74,2.74,0,0,1,.63,2v4.68h-2v-4.19a2.14,2.14,0,0,0-.26-1.16.91.91,0,0,0-.82-.39,1.23,1.23,0,0,0-1.08.51,3,3,0,0,0-.34,1.63Z"/><path class="cls-7" d="M181.72,189.05c0-.63.35-1,1.06-1s1.07.32,1.07,1a.94.94,0,0,1-.27.72,1.13,1.13,0,0,1-.8.25C182.07,190,181.72,189.69,181.72,189.05Zm2,9h-2v-7.17h2Z"/><path class="cls-7" d="M187.76,198.08h-2v-10h2Z"/><path class="cls-7" d="M192.79,192.17a1.29,1.29,0,0,0-1,.4,1.78,1.78,0,0,0-.4,1.11h2.75a1.57,1.57,0,0,0-.39-1.11A1.26,1.26,0,0,0,192.79,192.17Zm.27,6a3.69,3.69,0,0,1-2.71-1,3.64,3.64,0,0,1-1-2.72,4,4,0,0,1,.9-2.78,3.23,3.23,0,0,1,2.5-1,3.13,3.13,0,0,1,2.36.87A3.25,3.25,0,0,1,196,194V195h-4.62a1.89,1.89,0,0,0,.49,1.31,1.75,1.75,0,0,0,1.3.46,5.46,5.46,0,0,0,1.23-.13,6.72,6.72,0,0,0,1.2-.43v1.51a4.47,4.47,0,0,1-1.1.38A6.42,6.42,0,0,1,193.06,198.21Z"/><path class="cls-7" d="M199.19,188.71l-.26,3.38h-1.27l-.26-3.38Zm2.7,0-.25,3.38h-1.27l-.26-3.38Z"/></svg>
