
<svg xmlns="http://www.w3.org/2000/svg" viewBox="0 0 54 54">
    <defs>
        <style>
            .cls-2{fill:#fff}
        </style>
    </defs>
    <rect x=".5" y=".5" width="53" height="53" rx=".37" style="fill:#145da0"/>
    <path class="cls-2" d="M27 45H8.58a5.31 5.31 0 0 1-5.3-4.19 5.57 5.57 0 0 1-.11-1.08V14.26A5.31 5.31 0 0 1 8.29 9h37.14a5.33 5.33 0 0 1 5.14 3.62 4.92 4.92 0 0 1 .27 1.62v25.53A5.28 5.28 0 0 1 45.89 45h-.66Zm0-1.66h18.43a3.65 3.65 0 0 0 3.75-3.74V14.41a3.44 3.44 0 0 0-.06-.72 3.65 3.65 0 0 0-3.73-3h-37a3.66 3.66 0 0 0-3.53 3.67v25.3a3.44 3.44 0 0 0 .56 2 3.57 3.57 0 0 0 3.18 1.72Z"/>
    <path class="cls-2" d="M27 30.1 7.15 13.63a1.89 1.89 0 0 1 1.35-.83 1.83 1.83 0 0 1 .33 0h36.32a2 2 0 0 1 1.62.73v.13Z"/>
    <path class="cls-2" d="m22.32 29 3.14 2.6.81.67a1.05 1.05 0 0 0 1.47 0l3.77-3.13.18-.14 14.58 12c-.26.08-.46.16-.68.21a1.36 1.36 0 0 1-.4 0H8.83a1.91 1.91 0 0 1-1.07-.28ZM6.83 39V16.11l13.84 11.48ZM47.16 39 33.33 27.59l13.83-11.47Z"/>
</svg>

