
<svg data-name="Layer 1" xmlns="http://www.w3.org/2000/svg" viewBox="0 0 54 54">
    <rect x=".5" y=".5" width="53" height="53" rx=".37" style="fill:#145da0"/>
    <path d="M14 19.2v-4A15.32 15.32 0 0 1 15.52 8a13.17 13.17 0 0 1 13.34-6.85 12.86 12.86 0 0 1 10.9 10.73 42.94 42.94 0 0 1 .14 6c0 1.56 0 1.31 1.24 1.31 3.6 0 6.16 2 6.77 5.41a6.79 6.79 0 0 1 .08 1.2v20.84a6 6 0 0 1-5 6.21 29.48 29.48 0 0 1-4.21.13Q25.6 53 12.43 53A6.16 6.16 0 0 1 6 46.59V25.45a6.19 6.19 0 0 1 6.29-6.25Zm13 0h6.8c.87 0 1-.16 1-1v-2.47a22.24 22.24 0 0 0-.24-3.47 7.75 7.75 0 0 0-15.27.92c-.14 1.61-.08 3.24-.11 4.86 0 1 .18 1.18 1.2 1.18ZM29.55 40v-2.28a1.69 1.69 0 0 1 .66-1.41 5.08 5.08 0 0 0 1.68-5.73A5.44 5.44 0 0 0 27.07 27a5.42 5.42 0 0 0-5.31 6.15 3.44 3.44 0 0 0 1 2.11 4.82 4.82 0 0 1 1.61 4.15v3.43A2.39 2.39 0 0 0 27 45.2a2.4 2.4 0 0 0 2.57-2.32c.05-.96-.02-1.88-.02-2.88Z" style="fill:#fff"/>
</svg>

