<svg id="Layer_1" data-name="Layer 1" xmlns="http://www.w3.org/2000/svg" viewBox="0 0 250 250"><defs><style>.cls-1{fill:#fff;stroke:#04a4d0;stroke-miterlimit:10;stroke-width:2.32px;}.cls-2{fill:#145da0;}</style></defs><circle class="cls-1" cx="125" cy="125" r="124"/><path class="cls-2" d="M125.08,59.87c14.87,0,29.74,0,44.61,0,4.24,0,7.51.7,8.21,5.93.15,1.16,3,2.67,4.72,2.79,8.2.6,8.73.49,8.07,8.81-.67,8.57-1.67,17.3-4,25.52-2.48,8.6-8.88,14.23-17.91,16.63-2.57.69-4.93,2.48-7.14,4.1-5.92,4.3-11.35,9.39-17.63,13.06-10.6,6.2-12.29,13.75-8.28,26.19,1.93,6,7,8.42,13.16,9.25,2.54.35,6.76,1.7,7,3.14.73,4.25.1,8.82-.63,13.15-.13.82-3.14,1.63-4.83,1.64-16.88.12-33.75,0-50.63.11-4.38,0-6.57-1.85-6.41-6.31a49.25,49.25,0,0,0,0-5c-.28-4.38,1.77-6.35,6.1-6.76,10.11-.94,13.6-3.59,15.47-11.23,2.69-11,.37-17.36-7.38-22.88-7.17-5.1-13.89-10.82-20.91-16.13a13.69,13.69,0,0,0-4.92-2.1c-9.35-2.27-15.56-7.89-19-16.88-3.66-9.62-3.78-19.59-3.51-29.64.1-3.88,2.65-4.66,5.82-4.5,4.1.21,7.41,0,8.15-5.47.19-1.41,4.4-3.19,6.79-3.24C95,59.72,110,59.87,125.08,59.87Zm.18,7.12c-13.54,0-27.07.09-40.61-.06-4,0-5.49,1.23-4.76,5.32.52,2.94.32,6,.59,9,1.94,21.3,8.31,39.89,29.39,50.09,11,5.31,14,14.81,12.71,26.4-1.29,11.75-6.53,18.13-18,21.18-1.34.35-2.43,1.63-3.64,2.48,1.44.54,2.88,1.54,4.32,1.55q19.8.18,39.6,0c1.38,0,2.75-1.15,4.12-1.77-1.26-.85-2.4-2.12-3.79-2.49-5.66-1.5-10.7-3.81-14-9-9.07-14.44-5.44-30,9.07-38.76,1.71-1,3.44-2.06,5.15-3.12,8.78-5.47,16-12.64,18.71-22.69,2.82-10.56,4-21.56,6-32.36.81-4.43-.93-5.92-5.38-5.85C151.66,67.12,138.46,67,125.26,67Zm-46.17,45.6c-2.19-12.47-4-23.37-6.16-34.21-.2-1-2.43-2.36-3.55-2.22a4.34,4.34,0,0,0-2.9,3C66,87.6,66.54,96,70.84,103.44,72.69,106.64,75.85,109.08,79.09,112.59Zm92-1.37c1.52-1.1,3.39-2,4.58-3.4,7.07-8.47,8.24-18.65,7.72-29.14,0-1-2.18-2.57-3.31-2.54A4.38,4.38,0,0,0,177,78.92C174.88,89.45,173.09,100,171.11,111.22Z"/></svg>