<svg data-name="Layer 1" xmlns="http://www.w3.org/2000/svg" viewBox="0 0 54 54">
    <rect x=".5" y=".5" width="53" height="53" rx=".37" style="fill:#145da0"/>
    <path d="M1 28v-2a.86.86 0 0 0 .07-.21c.08-.87.14-1.75.24-2.63a22.72 22.72 0 0 1 1-4.3A25.87 25.87 0 0 1 8.4 8.87c.63-.63 1.3-1.23 2-1.81a25.46 25.46 0 0 1 9.43-5 24.83 24.83 0 0 1 6-1 1.11 1.11 0 0 0 .25-.06h2c.07 0 .13.07.2.07l1 .06a22.86 22.86 0 0 1 3.72.61 25.55 25.55 0 0 1 7.16 2.86A26 26 0 0 1 47 10.48a25.76 25.76 0 0 1 5.9 15.57.92.92 0 0 0 .07.26v1.44c0 .07-.07.13-.07.2 0 .38 0 .75-.07 1.12-.07.74-.12 1.47-.25 2.2a27 27 0 0 1-1.23 4.65 25.11 25.11 0 0 1-2.44 5 26.21 26.21 0 0 1-10.25 9.31 24.09 24.09 0 0 1-4 1.61 25.09 25.09 0 0 1-6.6 1.13.84.84 0 0 0-.26.07h-1.61c-.07 0-.13-.07-.2-.07-.88-.08-1.76-.15-2.63-.24a20.4 20.4 0 0 1-4-.88 25.61 25.61 0 0 1-7.18-3.51A26 26 0 0 1 7 43.54a25.19 25.19 0 0 1-3.66-5.84 25.44 25.44 0 0 1-2.27-9.43A.68.68 0 0 0 1 28Zm33.55 12.9a2.82 2.82 0 0 0 1.76-.58 8.94 8.94 0 0 0 .71-.67c1.16-1.15 2.34-2.28 3.47-3.46a1.31 1.31 0 0 0-.34-2.19c-1.8-1.07-3.62-2.13-5.41-3.21a2 2 0 0 0-2.54.33c-.45.51-1 1-1.44 1.46a.59.59 0 0 1-.57.18 5.6 5.6 0 0 1-1.71-.72 16.59 16.59 0 0 1-3.33-2.68 20.83 20.83 0 0 1-2.51-2.8 8.73 8.73 0 0 1-1.42-2.74.62.62 0 0 1 .18-.65c.44-.44.87-.88 1.31-1.31a1.82 1.82 0 0 0 .36-2.18c-.79-1.43-1.53-2.88-2.29-4.32-.27-.5-.53-1-.81-1.49a1.51 1.51 0 0 0-.88-.78 1.39 1.39 0 0 0-1.44.49l-3.77 3.76a2.71 2.71 0 0 0-.77 1.51 6.8 6.8 0 0 0 .14 2.54 18.06 18.06 0 0 0 2.28 5.68 28.3 28.3 0 0 0 3.8 5.05 40.4 40.4 0 0 0 4.25 4A25.66 25.66 0 0 0 30 40a13.26 13.26 0 0 0 4.55.94Z" style="fill:#fff"/>
</svg>
