<svg id="Layer_1" data-name="Layer 1" xmlns="http://www.w3.org/2000/svg" viewBox="0 0 54 72"><defs><style>.cls-1{fill:#fff;}</style></defs><path class="cls-1" d="M8.74,10.15c0-.09,0-.19,0-.29,0-.36,0-.72,0-1.08A1.14,1.14,0,0,1,9.92,7.62a8.5,8.5,0,0,0,2.55-.36l.42-.15a1.85,1.85,0,0,0,1.2-1.25,4.83,4.83,0,0,0,.22-1.36c0-.7-.06-1.4-.1-2.1,0-.41-.06-.82-.05-1.24A1.1,1.1,0,0,1,15.24,0H38.48A2.63,2.63,0,0,1,39,0a1.06,1.06,0,0,1,.86.92,1.27,1.27,0,0,1,0,.34c0,.38,0,.77-.05,1.16s-.07.94-.1,1.42a6.44,6.44,0,0,0,.11,1.64A2.91,2.91,0,0,0,40,6,1.88,1.88,0,0,0,41.05,7.1a7,7,0,0,0,1.41.38,10,10,0,0,0,1.64.14,1.1,1.1,0,0,1,1.14,1.14c0,.34,0,.67,0,1,0,.12,0,.25,0,.35a.41.41,0,0,0,.34.08h2.29a6.08,6.08,0,0,1,6,5.36,5.78,5.78,0,0,1,0,.71Q54,41.11,54,66a5.88,5.88,0,0,1-2.59,5A5.76,5.76,0,0,1,48.12,72H6.31a6.8,6.8,0,0,1-2-.25,6.09,6.09,0,0,1-4.26-5A7,7,0,0,1,0,65.68V16.55a7.47,7.47,0,0,1,.2-1.82A6.08,6.08,0,0,1,5,10.32a8.39,8.39,0,0,1,1.23-.11c.72,0,1.45,0,2.17,0A.67.67,0,0,0,8.74,10.15Zm0,2.34a1.09,1.09,0,0,0-.24,0H6l-.34,0a3.81,3.81,0,0,0-3.26,2.71,4.37,4.37,0,0,0-.16,1.3V65.72c0,.21,0,.43,0,.64a3.84,3.84,0,0,0,2.91,3.29,4.67,4.67,0,0,0,1.12.1H48.06a2.22,2.22,0,0,0,.45,0,3.79,3.79,0,0,0,3.08-2.78,4.36,4.36,0,0,0,.14-1.3v-49c0-.12,0-.25,0-.37a7.68,7.68,0,0,0-.11-.82A3.8,3.8,0,0,0,48,12.46c-.82,0-1.65,0-2.47,0a1.2,1.2,0,0,0-.23.05c0,.14,0,.26,0,.39v1.76c0,.11,0,.22,0,.34a1.08,1.08,0,0,1-1,1H9.8a1.11,1.11,0,0,1-1-.82,1.84,1.84,0,0,1,0-.41V12.87C8.76,12.74,8.75,12.62,8.74,12.49ZM11,13.69c.44.06,29.58.09,31.72,0l.23,0a1.81,1.81,0,0,0,0-.19V10a1.55,1.55,0,0,0,0-.21l-1-.16A7.72,7.72,0,0,1,39.79,9a3.94,3.94,0,0,1-2.17-2.71,8.45,8.45,0,0,1-.18-2.35c0-.47.07-.95.1-1.42a1.8,1.8,0,0,0,0-.22,2.16,2.16,0,0,0-.5,0H16.7l-.22,0a1,1,0,0,0,0,.16l.06,1a9.79,9.79,0,0,1-.11,2.65A3.91,3.91,0,0,1,14.23,9c-.18.09-.37.17-.55.24a9.24,9.24,0,0,1-2.07.52c-.19,0-.39,0-.6.1Z"/><path class="cls-1" d="M36.72,45.87h5.1a1.13,1.13,0,0,1,0,2.25h-10a1.81,1.81,0,0,1-.52-.06,1.1,1.1,0,0,1-.79-1.17,1.11,1.11,0,0,1,1-1h5.13Z"/><path class="cls-1" d="M36.73,59.9H31.59a1.13,1.13,0,0,1-1.05-1.12,1.14,1.14,0,0,1,1.05-1.12H41.86a1.12,1.12,0,0,1,1,1.12,1.1,1.1,0,0,1-1,1.12H36.73Z"/><path class="cls-1" d="M36.7,22.32h4.8c.12,0,.25,0,.37,0a1.12,1.12,0,0,1,.27,2.18,1.77,1.77,0,0,1-.52.06h-10a1.12,1.12,0,0,1-1-1,1.09,1.09,0,0,1,.76-1.16,1.54,1.54,0,0,1,.48-.06c.74,0,1.48,0,2.21,0Z"/><path class="cls-1" d="M36.75,34.09h5.06a1.11,1.11,0,0,1,1.09,1.06,1.13,1.13,0,0,1-1,1.18h-10a2.52,2.52,0,0,1-.48,0,1.12,1.12,0,0,1,.22-2.2h5.14Z"/><path class="cls-1" d="M14.41,35.93a1,1,0,0,0,.34-.26q1.8-1.72,3.61-3.44a3.31,3.31,0,0,1,.27-.26,1.13,1.13,0,0,1,1.53.11,1.11,1.11,0,0,1,0,1.5,1.62,1.62,0,0,1-.18.19l-4.77,4.55a1.16,1.16,0,0,1-.71.38,1.1,1.1,0,0,1-.93-.31l-.18-.19L11.5,36a1.71,1.71,0,0,1-.21-.26,1.11,1.11,0,0,1,.18-1.46,1.13,1.13,0,0,1,1.48,0c.08.07.15.16.23.24l1,1.18Z"/><path class="cls-1" d="M14.44,47.74l.32-.3,3.68-3.52a1.39,1.39,0,0,1,.63-.39,1.13,1.13,0,0,1,1.19.46,1.1,1.1,0,0,1,0,1.26,1.84,1.84,0,0,1-.23.25l-4.84,4.64a1.17,1.17,0,0,1-1.7-.06c-.69-.8-1.4-1.59-2.1-2.39A1.12,1.12,0,0,1,13,46.08a2.83,2.83,0,0,1,.24.25l1,1.18Z"/><path class="cls-1" d="M14.44,59.52l.32-.31,3.69-3.51a1.3,1.3,0,0,1,.63-.39,1.13,1.13,0,0,1,1.2.49,1.11,1.11,0,0,1-.07,1.3l-.23.24c-1.59,1.52-3.18,3-4.77,4.56a1.14,1.14,0,0,1-1.13.33A1,1,0,0,1,13.6,62a2.18,2.18,0,0,1-.21-.22l-1.88-2.13a2.92,2.92,0,0,1-.23-.29,1.12,1.12,0,0,1,1.65-1.48,1.73,1.73,0,0,1,.23.24l1.05,1.18C14.27,59.34,14.34,59.41,14.44,59.52Z"/><path class="cls-1" d="M14.44,24.17l.3-.27,3.63-3.47a2.18,2.18,0,0,1,.28-.25,1.12,1.12,0,0,1,1.53,1.61,1.81,1.81,0,0,1-.24.24l-4.71,4.51a1.17,1.17,0,0,1-.93.38,1.06,1.06,0,0,1-.68-.27l-.18-.19-2-2.25a2.23,2.23,0,0,1-.19-.24,1.12,1.12,0,0,1,1.66-1.46,1.66,1.66,0,0,1,.26.27l1,1.12Z"/></svg>