<svg xmlns="http://www.w3.org/2000/svg" viewBox="0 0 72 72"><defs><style>.cls-1{fill:#002c80;stroke:#fff;stroke-miterlimit:10;}.cls-2{fill:#fff;}</style></defs>
    <path class="cls-2" d="M45.32,40.12a13.88,13.88,0,0,1-18.62,0,16.29,16.29,0,0,0-3.16,2.58,17,17,0,0,0-4.74,9.77,1,1,0,0,1-.71,1,1.1,1.1,0,0,1-1.21-.44,25.23,25.23,0,0,1-6.24-13.43,25,25,0,0,1,5.57-19.93,24.82,24.82,0,0,1,15-8.9A25.43,25.43,0,0,1,47.1,12.89a1,1,0,0,1,.69.79,1,1,0,0,1-.37,1,1.12,1.12,0,0,1-1.13.05,37.83,37.83,0,0,0-4.39-1.59,23.11,23.11,0,0,0-21.48,5.11,22.54,22.54,0,0,0-7.66,13.4A23.27,23.27,0,0,0,17,50.13a.89.89,0,0,1,.08.17c.38-1.07.68-2.08,1.1-3a19.07,19.07,0,0,1,7.92-9.07,1.07,1.07,0,0,1,1.58.17,11.78,11.78,0,0,0,16.55,0,1.08,1.08,0,0,1,1.61-.18A19.15,19.15,0,0,1,54.7,49.93c0,.1.07.2.13.4.44-.65.86-1.22,1.23-1.82a23.62,23.62,0,0,0-1.12-26.67,2.37,2.37,0,0,1-.41-.68,1,1,0,0,1,.44-1.1,1,1,0,0,1,1.22.18,13.4,13.4,0,0,1,.9,1.2,25.13,25.13,0,0,1,4.5,15.88,25.09,25.09,0,0,1-8.1,17.4,24.84,24.84,0,0,1-13.58,6.61,25.27,25.27,0,0,1-16.06-2.76,1.7,1.7,0,0,1-.68-.7.84.84,0,0,1,.28-1,1,1,0,0,1,1.15-.11c1.19.54,2.36,1.14,3.59,1.59A22.89,22.89,0,0,0,38.64,59.5a23.52,23.52,0,0,0,14.2-6.89.78.78,0,0,0,.26-.81,17.2,17.2,0,0,0-5.84-10.18C46.64,41.09,46,40.63,45.32,40.12Z"/><path class="cls-2" d="M36,18.7a9.95,9.95,0,1,1-9.95,10A9.9,9.9,0,0,1,36,18.7Zm0,2a8,8,0,1,0,8,8A8,8,0,0,0,36,20.67Z"/></svg>