<svg id="Layer_1" data-name="Layer 1" xmlns="http://www.w3.org/2000/svg" viewBox="0 0 250 250"><defs><style>.cls-1{fill:#fff;stroke:#04a4d0;stroke-miterlimit:10;stroke-width:2.32px;}.cls-2{fill:#145da0;}</style></defs><circle class="cls-1" cx="125" cy="125" r="124"/><path class="cls-2" d="M125.47,101.65c6.46-9,14.84-15.23,25.72-17.88,22.79-5.54,46.33,9.09,51.21,31.88,5,23.47-9.84,46.43-33,50.95a4.86,4.86,0,0,1-2.46.24,20.16,20.16,0,0,1-3.31-2.12c.8-.88,1.44-2.15,2.44-2.57,1.83-.75,3.89-.89,5.8-1.47a37.27,37.27,0,1,0-36-8.05c1.71,1.59,6,3,3.21,6s-4.94-.95-6.82-2.61a104.74,104.74,0,0,1-7.36-7.88c-1.3,1.57-2.52,3.11-3.8,4.59a42.57,42.57,0,0,1-48.37,11.38c-16.63-6.83-27.49-24.27-26-41.83,1.57-18.89,14.2-34,32.14-38.42,1-.23,2.06-.82,2.89-.57a5.07,5.07,0,0,1,2.83,2.13c.24.45-.83,2-1.64,2.53s-2.23.61-3.35.91a37.32,37.32,0,1,0,39.93,57.65c1.86-2.62,2.55-4.95,1.35-8.27-3-8.22-3.41-16.81-.35-25,1.82-4.88.59-8.36-2.58-11.7-2.18-2.29-4.7-4.27-6.76-6.65-.76-.88-.63-2.52-.91-3.81,1.33,0,3.15-.64,3.9,0C118,94.27,121.48,97.83,125.47,101.65Z"/><path class="cls-2" d="M97.89,60.15c-1.54,8-2.8,14.65-4.12,21.55h20.91c-2.87-6.94-2.26-8.3,4.66-11,8.69-3.46,19.11-.62,24.09,6.82.84,1.26.62,3.22.9,4.86-1.62-.58-3.75-.71-4.77-1.83-6-6.6-12.91-8.09-20.57-3.61,1.19,1.57,2.39,3,3.48,4.61,2.22,3.17,1.45,5.06-2.35,5.2-9.34.34-18.69.47-28,.69-2.91.06-4.43-1-3.79-4.23,1.84-9.32,3.5-18.68,5.42-28,.78-3.77,2.73-4.17,5.47-1.37,1.27,1.31,2.42,2.73,3.91,4.41,7.58-4.72,15.73-7.42,24.66-6.38,14.31,1.67,24.49,9.07,29.89,22.53.58,1.44-.31,3.47-.52,5.23-1.35-1.1-3.31-1.92-3.95-3.34-8.72-19.34-29.53-25.5-47-13.46C102.62,65.21,100.78,64.08,97.89,60.15Z"/><path class="cls-2" d="M128.91,172.85a37.2,37.2,0,0,1-3.2-4.15c-.69-1.17-1.59-3-1.12-3.85s2.44-1.52,3.78-1.56c9-.28,18-.31,27-.56,3.62-.1,4.82,1.36,4.12,4.86-1.79,9-3.42,18-5.26,27-.24,1.15-1.27,3-2,3-1.21.08-2.65-.87-3.69-1.75a39.4,39.4,0,0,1-3.73-4.16c-10,6.36-20.38,8.39-31.41,5.16-10.87-3.19-18.76-10.06-22.91-20.72-.62-1.59.28-3.78.47-5.69,1.34,1.16,3.25,2.06,3.91,3.52,8.64,19,29.69,25.2,46.76,13.31,3.62-2.53,5.6-1.2,8.44,2.08,1.46-7.49,2.74-14.08,4.11-21.13H133.36c2.5,7.05,1.33,9.22-6,11.55-8.11,2.6-17.22.12-22.14-6.37-1-1.29-.77-3.47-1.11-5.24,1.61.61,3.81.75,4.72,1.91C113.35,175.8,123.77,177.79,128.91,172.85Z"/><path class="cls-2" d="M71.57,142.15a1.67,1.67,0,0,1,.05-.5c3-7.62.3-13.05-5.84-18-4.12-3.34-2.38-7.89,2.85-9.15a3.06,3.06,0,0,1,1-.17c7.64.55,11.91-3.24,14.31-10.27.59-1.72,3.28-3.75,5-3.76s3.55,2.25,5.19,3.67a4.61,4.61,0,0,1,1.12,2.21c1.63,5.87,5.78,7.67,11.5,8.16,2.54.22,6,2,7,4.12.71,1.52-1.36,5.41-3.25,6.86-5.28,4.05-6.23,8.68-4.53,14.82.6,2.15-.12,5.83-1.64,7s-5.38.8-7.07-.45c-6.11-4.53-11.34-3.22-17.23.47C75.09,150.26,71.23,147.63,71.57,142.15ZM89,105.51c-3,9.88-9.27,14.63-19.74,14.51,9.29,5.71,10.55,13.43,7.69,23,8.27-6.75,16-6.08,24.21-.08-3.64-9.87-1.14-17.19,7.47-23.11C98.19,120.06,91.87,115.56,89,105.51Z"/><path class="cls-2" d="M170.24,145.46c-1.61,0-3.23,0-4.84,0a2.14,2.14,0,0,1-1.35-.63c-4.79-5.6-9.61-11.18-14.23-16.92-.74-.92-.53-2.61-.75-3.91,2.63-.21,5-.23,7.31-.62,4.39-.76,6.67-3.06,7.08-6.93H147.84c.91-1.37,1.57-2.51,2.39-3.52a2.12,2.12,0,0,1,1.44-.4c3.18,0,6.35,0,9.53,0H163c-1.94-3.22-4.82-4-7.94-4.2-2.24-.12-4.5,0-7.08,0,.84-1.27,1.46-2.32,2.2-3.27a1.69,1.69,0,0,1,1.22-.54c8.28,0,16.57,0,25.08,0-.75,1.16-1.37,2.27-2.14,3.26a2,2,0,0,1-1.38.5c-1.86.05-3.73,0-5.68,0,.61,1.38,1.1,2.62,1.73,3.79.15.29.77.45,1.19.46,2,0,4,0,6,0-.66,2.73-2,3.94-4.64,3.82-1.62-.08-2.34.35-2.85,2-1.39,4.54-5,6.68-9.36,7.68-1.08.24-2.19.36-3.54.57L170.57,145Z"/></svg>