<svg id="Layer_1" data-name="Layer 1" xmlns="http://www.w3.org/2000/svg" viewBox="0 0 36 36"><defs><style>.cls-1{fill:#002c80;}</style></defs><path class="cls-1" d="M10.3,28.29v-3c0-.3,0-.59,0-.89a1.27,1.27,0,0,1,1.3-1.29h2.55c0-.92,0-1.8,0-2.68a.39.39,0,0,0-.13-.22q-1.41-1.69-2.84-3.38a1,1,0,0,0-.5-.33c-4.11-.72-6.9-3.15-8.82-6.73A16.55,16.55,0,0,1,0,4.14,1.28,1.28,0,0,1,1.37,2.58c2.42,0,4.85,0,7.27,0a.75.75,0,0,0,.71-.37c.43-.61.91-1.18,1.4-1.75A1.38,1.38,0,0,1,11.86,0H24.15A1.44,1.44,0,0,1,25.3.47c.47.56,1,1.12,1.37,1.72a.77.77,0,0,0,.74.39h7c1.24,0,1.73.56,1.54,1.79a16.1,16.1,0,0,1-3.57,8.12,11.26,11.26,0,0,1-6.89,4,1,1,0,0,0-.68.42C23.87,18,22.92,19.14,22,20.25a.5.5,0,0,0-.12.24v2.65h2.3c1.09,0,1.56.47,1.56,1.57v3.58h2.34a1.32,1.32,0,0,1,1.51,1.49v4.78A1.3,1.3,0,0,1,28.14,36H7.9a1.31,1.31,0,0,1-1.46-1.43V29.71a1.29,1.29,0,0,1,1.42-1.42ZM18,2.57c-1.79,0-3.58,0-5.38,0a.69.69,0,0,0-.7.35A15.84,15.84,0,0,0,10.79,5a8.85,8.85,0,0,0,.41,6.79,21.41,21.41,0,0,0,4.1,6.05.74.74,0,0,0,.42.15c1.53,0,3.06,0,4.58,0a.67.67,0,0,0,.47-.2c.73-.86,1.47-1.71,2.13-2.62a13.75,13.75,0,0,0,2.78-6.61A7.65,7.65,0,0,0,24,2.85a.71.71,0,0,0-.62-.28C21.62,2.58,19.83,2.57,18,2.57ZM9,33.4H27V30.88H9Zm3.86-5.14H23.12V25.74H12.89ZM2.9,5.16c.24,3.1,3.66,7.64,6.18,8.21a12.15,12.15,0,0,1-1-8.21Zm30.27,0H28a10.51,10.51,0,0,1,.2,4.21,15.47,15.47,0,0,1-1.26,4.08C30.53,11.76,32.18,8.73,33.17,5.17ZM19.28,20.6H16.76v2.52h2.52Z"/></svg>