<svg xmlns="http://www.w3.org/2000/svg" viewBox="0 0 72 72">
    <path class="cls-2" d="M25.87,49.52V45.63c0-.38,0-.77,0-1.16a1.66,1.66,0,0,1,1.7-1.7c1.11,0,2.21,0,3.36,0,0-1.21,0-2.36,0-3.52,0-.1-.1-.21-.17-.3-1.24-1.48-2.48-3-3.74-4.43a1.33,1.33,0,0,0-.66-.45c-5.39-.94-9.07-4.14-11.59-8.84a21.94,21.94,0,0,1-2.4-7.44,1.7,1.7,0,0,1,1.75-2.06q4.78,0,9.56,0a1,1,0,0,0,.93-.49c.57-.8,1.21-1.55,1.84-2.3a1.83,1.83,0,0,1,1.47-.61H44.09a1.83,1.83,0,0,1,1.5.63,26.33,26.33,0,0,1,1.81,2.26,1,1,0,0,0,1,.51c3.06,0,6.13,0,9.19,0,1.63,0,2.27.73,2,2.35a21.15,21.15,0,0,1-4.7,10.67A14.72,14.72,0,0,1,45.83,34a1.39,1.39,0,0,0-.89.55C43.72,36,42.47,37.5,41.24,39a.69.69,0,0,0-.15.31c0,1.14,0,2.28,0,3.49h3c1.43,0,2,.62,2,2.06v4.7h3.08a1.75,1.75,0,0,1,2,2v6.28a1.71,1.71,0,0,1-1.9,1.9H22.72a1.72,1.72,0,0,1-1.92-1.88V51.4a1.7,1.7,0,0,1,1.87-1.87ZM36,15.72c-2.36,0-4.71,0-7.07,0a.92.92,0,0,0-.92.46,20.63,20.63,0,0,0-1.53,2.75,11.6,11.6,0,0,0,.54,8.93,28.28,28.28,0,0,0,5.39,7.95A.83.83,0,0,0,33,36q3,0,6,0a.89.89,0,0,0,.62-.27c1-1.13,1.92-2.25,2.79-3.44a17.83,17.83,0,0,0,3.65-8.7,10,10,0,0,0-2.17-7.5,.91,.91,0,0,0-.8-.37C40.76,15.73,38.4,15.72,36,15.72ZM24.21,56.25h23.6V52.93H24.21Zm5.07-6.76H42.74V46.17H29.28ZM16.14,19.12c.33,4.07,4.82,10,8.13,10.79a16,16,0,0,1-1.35-10.79Zm39.81,0H49.11a13.78,13.78,0,0,1,.27,5.53A20.3,20.3,0,0,1,47.71,30C52.48,27.79,54.64,23.81,56,19.13ZM37.68,39.42H34.37v3.31h3.31Z"/>
</svg>
