<svg id="Layer_1" data-name="Layer 1" xmlns="http://www.w3.org/2000/svg" viewBox="0 0 120 120"><defs><style>.cls-1{fill:#fff;stroke:#04a4d0;stroke-miterlimit:10;stroke-width:1.13px;}.cls-2{fill:#145da0;}</style></defs><circle class="cls-1" cx="60" cy="60" r="57.5"/><path class="cls-2" d="M82.28,83.9c7.28-7.71,10.49-16.64,9.14-27A30.91,30.91,0,0,0,80.17,36.71a31.81,31.81,0,0,0-41.51,1A31,31,0,0,0,28.29,60.54c-.22,9,3.09,16.69,9.39,23.32-.39,0-.61,0-.84,0-5.42,0-10.83,0-16.25,0a1.6,1.6,0,0,1-1.68-1c-1.09-2.19-1.13-2.18.68-3.78,1.1-1,2.18-2,3.31-2.91a1.22,1.22,0,0,0,.43-1.52c-.68-2.27-1.28-4.56-1.84-6.87-.13-.56-.31-.83-.9-.94-2-.37-4-.83-5.94-1.21-.72-.13-1-.43-1-1.17q.06-3.3,0-6.6c0-.7.28-1,.94-1.1,1.95-.37,3.9-.8,5.85-1.17a1.15,1.15,0,0,0,1-1.06c.54-2.3,1.19-4.58,1.85-6.86A1.07,1.07,0,0,0,23,46.34c-1.54-1.32-3-2.7-4.57-4-.46-.4-.62-.73-.27-1.32,1.13-1.88,2.22-3.79,3.3-5.71A1.09,1.09,0,0,1,23,34.71c1.86.7,3.76,1.31,5.67,1.88a1.41,1.41,0,0,0,1.13-.3c1.77-1.68,3.46-3.44,5.22-5.14a1,1,0,0,0,.35-1.26c-.68-1.95-1.3-3.92-2-5.86a.87.87,0,0,1,.42-1.21c2-1.12,3.95-2.24,5.9-3.4.61-.36,1-.2,1.41.3,1.3,1.52,2.65,3,4,4.49a1.1,1.1,0,0,0,1.34.38c2.31-.68,4.64-1.29,7-1.87a1.1,1.1,0,0,0,1-1c.36-2,.83-4,1.2-5.95.11-.6.35-.83.95-.83,2.3,0,4.6,0,6.9,0,.58,0,.85.21,1,.83.37,2,.83,4,1.21,6a1.09,1.09,0,0,0,1,1c2.31.55,4.61,1.14,6.88,1.82A1.23,1.23,0,0,0,75,24.12c1.3-1.51,2.65-3,3.94-4.5a.85.85,0,0,1,1.25-.25q3,1.75,6,3.47a.89.89,0,0,1,.4,1.23c-.66,1.92-1.26,3.85-1.93,5.76A1.08,1.08,0,0,0,85,31.18c1.71,1.64,3.4,3.31,5,5a1.17,1.17,0,0,0,1.44.38c1.84-.66,3.71-1.24,5.55-1.9.64-.23,1.08-.23,1.45.45,1.1,2,2.25,3.94,3.39,5.9a.82.82,0,0,1-.23,1.23c-1.54,1.31-3,2.7-4.56,4a1.16,1.16,0,0,0-.38,1.45C97.31,50,98,52.23,98.47,54.5a1.26,1.26,0,0,0,1.2,1.14c1.85.36,3.69.77,5.55,1.11.77.14,1.14.43,1.12,1.28,0,2.13,0,4.26,0,6.39a1.06,1.06,0,0,1-1,1.25c-1.92.34-3.83.78-5.75,1.15a1.13,1.13,0,0,0-1.06,1c-.54,2.34-1.25,4.64-1.82,7A1.48,1.48,0,0,0,97,76.05c1.47,1.4,3,2.73,4.53,4.06a.94.94,0,0,1,.27,1.33c-1.18,2.44-1.15,2.46-3.84,2.46H82.28Z"/><path class="cls-2" d="M63.41,46.82c.27,1.89.27,1.9-1.37,1.9H58.27a6.21,6.21,0,0,0-5.38,2.54c-1.58,2.24-2.91,4.65-4.5,7.26H68.92v5.14c-.43,0-.84.07-1.25.07-3.88,0-7.76,0-11.64,0a7.47,7.47,0,0,1-4.46-1.22A19.11,19.11,0,0,0,48.94,61c-.29-.14-.73.05-1.11.09.13.38.14.93.4,1.1a30.84,30.84,0,0,0,4.08,2.36,7.74,7.74,0,0,0,2.95.56c4.23.06,8.46,0,12.69,0,.83,0,1.07.25,1,1.07,0,2.34,0,4.68,0,7.12-.49,0-.89.07-1.3.07-3.18,0-6.36,0-9.54,0a4,4,0,0,0-3.29,1.52Q53.57,76.48,52.25,78c-.19.23-.45.58-.69.58-1.94,0-3.92.35-5.79-.47a6.29,6.29,0,0,1-4.07-5.32,52.94,52.94,0,0,1,.06-8.16,6.74,6.74,0,0,1,3.13-4.88,4.33,4.33,0,0,0,1.18-1.27c1.37-2.27,2.66-4.59,4-6.86,1.9-3.16,4.59-5,8.43-4.85C60.17,46.87,61.8,46.82,63.41,46.82ZM49.78,70.14a3.21,3.21,0,0,0,.93,0c.6-.21,1.45-.38,1.65-.82a2.17,2.17,0,0,0-.5-1.75,11.3,11.3,0,0,0-5.79-3.91,2.3,2.3,0,0,0-2.92,2.25,2.9,2.9,0,0,0,1.5,2.69A10.14,10.14,0,0,0,49.78,70.14Z"/><path class="cls-2" d="M78.32,40.8A8.78,8.78,0,0,1,78,56.29c-.65.34-.64.8-.64,1.37q0,11.16,0,22.33a3.56,3.56,0,0,1-2.07,3.57,3.35,3.35,0,0,1-4.78-2.76c0-.38,0-.77,0-1.15,0-7.27,0-14.54,0-21.8a1.66,1.66,0,0,0-1-1.72,8.89,8.89,0,0,1-1-14.81c.24-.18.51-.33.94-.62,0,2,0,3.91,0,5.77A1.43,1.43,0,0,0,70.25,48a6.68,6.68,0,0,1,1.71,1c1.34,1.16,2.47.74,3.92,0,2-1,2.82-2.28,2.48-4.48A24.86,24.86,0,0,1,78.32,40.8ZM75.14,80.43a1.23,1.23,0,0,0-1.22-1.3,1.17,1.17,0,0,0-1.3,1.2,1.16,1.16,0,0,0,1.19,1.31A1.24,1.24,0,0,0,75.14,80.43Z"/><path class="cls-2" d="M53.71,78.6a37.71,37.71,0,0,1,2.47-2.94,2.88,2.88,0,0,1,1.75-.79c3.53-.07,7.06,0,10.59,0a1.43,1.43,0,0,1,.38.11V78.6Z"/><path class="cls-2" d="M42.85,78a9.28,9.28,0,0,0,6.84,2.14c.71,0,1,.26.88.92a8.23,8.23,0,0,1-.29,1.73,1.5,1.5,0,0,1-1.59,1.09c-1.22,0-2.45,0-3.67,0s-2-.53-2.14-1.87S42.85,79.53,42.85,78Z"/><path class="cls-2" d="M40.89,59.29a15,15,0,0,1-2.33-.43,1.9,1.9,0,0,1-1.35-1.92,1.83,1.83,0,0,1,1.48-1.82,14.85,14.85,0,0,1,4.21,0,2,2,0,0,1,1.66,2.11,2.46,2.46,0,0,1-2.08,1.93,11.73,11.73,0,0,1-1.57,0Z"/></svg>