<svg xmlns="http://www.w3.org/2000/svg" viewBox="0 0 72 72">
    <circle cx="36" cy="36" r="35.5" fill="#002c80" stroke="#fff" stroke-miterlimit="10"/>
    <circle cx="29.66" cy="42.45" r="6.32" fill="#fff"/>
    <path d="M49.35 42.45c-1.63-1.69-3-3.12-4.4-4.6-0.04-0.12-0.08-0.23-0.12-0.35-1.76-5.32-1.8-11.47-6.76-13.44a11.39 11.39 0 0 0-14.11 5 10.35 10.35 0 0 0 .8 12.13 10.84 10.84 0 0 0 11.62 4.31 1.81 1.81 0 0 1 1.94.61c1.22 1.28 2.51 2.48 4 3.9-1.2.49-2.19.94-3.21 1.27a1.07 1.07 0 0 0-.88 1.22v3.08a1.37 1.37 0 0 1-1.45 1.58h-5.84a1.35 1.35 0 0 1-1.37-1.35c0-1.09 0.05-2.2 0-3.29a1.46 1.46 0 0 0-.66-1 25.21 25.21 0 0 0-3.23-1.33 1.42 1.42 0 0 0-1.17.19c-.81.69-1.51 1.49-2.28 2.23a1.41 1.41 0 0 1-2.3 0c-1.26-1.23-2.52-2.48-3.76-3.74-1-1-1-1.54 0-2.52 0.69-.71 1.38-1.42 2.11-2.09a1 1 0 0 0 .23-1.38 20.82 20.82 0 0 1-1.22-2.93 1 1 0 0 0-1.26-.85h-3.08c-1.03 0-1.57-0.49-1.59-1.55v-5.63c0-1.13 0.5-1.57 1.66-1.6h3a1.07 1.07 0 0 0 1.24-.84 24.28 24.28 0 0 1 1.25-3 .93.93 0 0 0-.24-1.28c-.78-.72-1.5-1.5-2.25-2.25a1.33 1.33 0 0 1-.11-2.14c1.37-1.38 2.74-2.76 4.13-4.12a1.33 1.33 0 0 1 2.06 0c0.79.76 1.58 1.53 2.33 2.33a.91.91 0 0 0 1.28.21 25.81 25.81 0 0 1 3-1.26 1 1 0 0 0 .86-1.16v-3.18c0-1.06 0.46-1.48 1.51-1.5h5.63c1.19 0 1.55 0.39 1.58 1.63v3.08a1 1 0 0 0 .74 1.1c1.1.39 2.15 0.92 3.25 1.31a1.3 1.3 0 0 0 1.07-.19c0.83-.71 1.56-1.54 2.35-2.3a1.37 1.37 0 0 1 2.22 0c1.38 1.33 2.72 2.69 4 4.06a1.34 1.34 0 0 1-.06 2.13c-.79.77-1.59 1.52-2.3 2.35a1.26 1.26 0 0 0-.21 1.06 30.3 30.3 0 0 0 1.38 3.33 1.25 1.25 0 0 0 .88.62c1.09 0.08 2.19 0 3.29 0 1.1 0 1.57 0.5 1.58 1.67v5.41c0 1.27-0.46 1.69-1.75 1.7-1 0-1.92 0.05-2.87 0a1.11 1.11 0 0 0-1.27 0.95c-0.25 0.97-0.68 1.9-1.21 3.22Z" fill="#fff"/>
    <path d="M25.5 31.48c1.35 1.38 2.61 2.6 3.78 3.9a1.76 1.76 0 0 0 2.13.61 17.35 17.35 0 0 1 2.66-.7 1.32 1.32 0 0 0 1.2-1.29 3.4 3.4 0 0 1 0.26-1c1.07-2.06 0.36-3.57-1.35-4.89a34.88 34.88 0 0 1-2.68-2.65 8.73 8.73 0 0 1 10.79 10.85 1.38 1.38 0 0 0 .42 1.56 1.53 1.53 0 0 0 2.17-0.36 1.55 1.55 0 0 0 0.19-1.18 3.47 3.47 0 0 1 0.26-1 17.6 17.6 0 0 1 2.08-3.08 1.45 1.45 0 0 0 0.52-1.49 3.63 3.63 0 0 1 0-1c-0.62-2.6-1.39-5.19-2.06-7.79a1.33 1.33 0 0 0-2.26-0.51 1.34 1.34 0 0 0-.25 1 1.53 1.53 0 0 1-.3 1.19 17.92 17.92 0 0 0-2.06 7.13c0 0.16-0.06 0.31-0.19 0.56Z" fill="#fff"/>
</svg>
