<svg id="Layer_1" data-name="Layer 1" xmlns="http://www.w3.org/2000/svg" viewBox="0 0 72 72"><defs><style>.cls-1{fill:#002c80;stroke:#fff;stroke-miterlimit:10;}.cls-2{fill:#fff;}</style></defs><circle class="cls-1" cx="36" cy="36" r="35.5"/><path class="cls-2" d="M37.15,27.6h7.06a2.3,2.3,0,0,1,2.48,2.46c0,3.67,0,7.35,0,11a1.3,1.3,0,0,1-.42,1c-1.16,1.14-2.3,2.28-3.44,3.44a1.26,1.26,0,0,1-1,.4H30a2.28,2.28,0,0,1-2.43-2.41V30A2.29,2.29,0,0,1,30,27.6Zm8,4.62h-16V43.36c0,.8.24,1,1.06,1H41.34V41.61c0-.78.25-1,1-1h2.77Zm-16-1.59h16c0-.13,0-.22,0-.31,0-1-.19-1.19-1.19-1.19H30.19c-.83,0-1.06.23-1.06,1.08ZM42.89,43.17l1-1h-1Z"/><path class="cls-2" d="M17.26,42.62l-1.36.49c-5.18-13.45,5.38-29.46,21.63-28.46,0-.47,0-.94,0-1.41,0-.79.58-1.13,1.25-.73,1.21.7,2.41,1.43,3.6,2.15a.78.78,0,0,1,0,1.44c-1.19.73-2.39,1.45-3.6,2.15-.7.42-1.26.08-1.27-.74,0-.41,0-.83,0-1.23C24.06,14.81,12.31,28.45,17.26,42.62ZM39.08,16.31l1.54-.93-1.54-.91Z"/><path class="cls-2" d="M34.47,57.39c0,.45,0,.93,0,1.4a.77.77,0,0,1-1.24.71c-1.22-.72-2.43-1.44-3.64-2.18a.76.76,0,0,1,0-1.41c1.2-.74,2.42-1.46,3.63-2.18a.77.77,0,0,1,1.25.7c0,.42,0,.85,0,1.36A19.88,19.88,0,0,0,54.8,42.33a19.79,19.79,0,0,0-.07-12.94l1.44-.52c2,6.09,1.65,12-1.53,17.51C50.21,54.08,43.34,57.53,34.47,57.39Zm-3.09-.78,1.52.91V55.7Z"/><path class="cls-2" d="M59.67,19.25a6.87,6.87,0,1,1-6.76-6.92A6.88,6.88,0,0,1,59.67,19.25ZM52.8,13.86a5.35,5.35,0,1,0,5.34,5.29A5.35,5.35,0,0,0,52.8,13.86Z"/><path class="cls-2" d="M26.07,52.79a6.87,6.87,0,1,1-6.9-6.86A6.88,6.88,0,0,1,26.07,52.79Zm-1.52,0a5.35,5.35,0,1,0-5.39,5.34A5.36,5.36,0,0,0,24.55,52.8Z"/><path class="cls-2" d="M34.51,34.49H36V36H34.51Z"/><path class="cls-2" d="M39.78,36H38.32V34.5h1.46Z"/><path class="cls-2" d="M43.61,36H42.14V34.5h1.47Z"/><path class="cls-2" d="M30.67,39V37.56h1.49V39Z"/><path class="cls-2" d="M34.51,37.55H36V39H34.51Z"/><path class="cls-2" d="M38.31,39V37.56h1.48V39Z"/><path class="cls-2" d="M43.61,37.55V39H42.14V37.55Z"/><path class="cls-2" d="M32.16,42.09H30.69V40.61h1.47Z"/><path class="cls-2" d="M36,42.09H34.5V40.62H36Z"/><path class="cls-2" d="M39.78,42.1H38.33V40.61h1.45Z"/><path class="cls-2" d="M55.17,16.47l1.11,1.11-.31.34-3.78,3.77c-.57.58-.92.58-1.48,0L49.4,20.39a.35.35,0,0,1-.06-.09l1.1-1,.92,1Z"/><path class="cls-2" d="M20.76,56.73H19.71s-.09,0-.13-.09l-2-2.43c-.25-.29-.5-.58-.74-.88a.4.4,0,0,1-.07-.18v-.58h.14a3.84,3.84,0,0,0,1.71-.23,1.28,1.28,0,0,0,.83-.89,1.42,1.42,0,0,0,0-.2v-.1h-3l.49-.71s.08,0,.12,0h2.29a1.13,1.13,0,0,0-.48-.51,2.06,2.06,0,0,0-1.06-.29H16.47a6.32,6.32,0,0,0,.36-.54.37.37,0,0,1,.38-.2H22c-.16.25-.3.48-.46.7,0,0-.08,0-.12,0h-1.2l.39.82H22l-.07.11c-.12.18-.23.37-.36.55a.19.19,0,0,1-.13.07l-.71,0h-.11C20.26,52.55,19.25,53,18,53.11l.1.12L20.7,56.5a1,1,0,0,1,.09.18Z"/></svg>