<svg xmlns="http://www.w3.org/2000/svg" viewBox="0 0 36 36"><defs><style>.cls-1{fill:#002c80;}</style></defs><path class="cls-1" d="M18.87,11.61h5.37a1.75,1.75,0,0,1,1.89,1.87v8.38a1,1,0,0,1-.32.77c-.88.87-1.75,1.74-2.61,2.62a1,1,0,0,1-.74.3h-9a1.75,1.75,0,0,1-1.85-1.84V13.44a1.75,1.75,0,0,1,1.86-1.83ZM25,15.12H12.77V23.6c0,.61.19.79.81.79h8.49c0-.75,0-1.43,0-2.12s.18-.78.77-.79H25ZM12.77,13.91H25c0-.09,0-.16,0-.23,0-.75-.15-.91-.91-.91H13.58c-.63,0-.81.18-.81.83Zm10.47,9.54.8-.78h-.8Z"/><path class="cls-1" d="M3.74,23l-1,.36C-1.23,13.18,6.8,1,19.16,1.77V.69c0-.61.44-.86,1-.56l2.73,1.64c.5.31.51.79,0,1.09C22,3.42,21.05,4,20.13,4.5c-.53.32-1,.06-1-.56V3C8.92,1.88,0,12.26,3.74,23ZM20.34,3l1.18-.71-1.18-.7Z"/><path class="cls-1" d="M16.84,34.27c0,.34,0,.71,0,1.07a.59.59,0,0,1-.95.53c-.92-.54-1.85-1.09-2.76-1.66a.57.57,0,0,1,0-1.06C14,32.58,15,32,15.89,31.48a.59.59,0,0,1,.95.53c0,.33,0,.66,0,1a14.83,14.83,0,0,0,9.5-2.48,14.72,14.72,0,0,0,6-7.76A15,15,0,0,0,32.24,13l1.1-.39A15.78,15.78,0,0,1,32.18,25.9C28.81,31.75,23.58,34.38,16.84,34.27Zm-2.35-.59,1.16.69V33Z"/><path class="cls-1" d="M36,5.26A5.23,5.23,0,1,1,30.86,0,5.24,5.24,0,0,1,36,5.26Zm-5.22-4.1a4.07,4.07,0,1,0,4.06,4A4.07,4.07,0,0,0,30.78,1.16Z"/><path class="cls-1" d="M10.45,30.77A5.23,5.23,0,1,1,5.2,25.55,5.24,5.24,0,0,1,10.45,30.77Zm-1.16,0a4.07,4.07,0,1,0-4.1,4.06A4.07,4.07,0,0,0,9.29,30.78Z"/><path class="cls-1" d="M16.87,16.85H18V18H16.87Z"/><path class="cls-1" d="M20.88,18H19.76V16.86h1.12Z"/><path class="cls-1" d="M23.79,18H22.67V16.86h1.12Z"/><path class="cls-1" d="M14,20.29V19.18h1.13v1.11Z"/><path class="cls-1" d="M16.87,19.18H18v1.11H16.87Z"/><path class="cls-1" d="M19.76,20.3V19.19h1.12V20.3Z"/><path class="cls-1" d="M23.79,19.18v1.11H22.67V19.18Z"/><path class="cls-1" d="M15.08,22.63H14V21.51h1.12Z"/><path class="cls-1" d="M18,22.63H16.86V21.51H18Z"/><path class="cls-1" d="M20.87,22.64h-1.1V21.51h1.1Z"/><path class="cls-1" d="M32.58,3.15l.85.84-.24.26L30.32,7.12c-.44.43-.7.44-1.13,0l-1-1-.05-.07L29,5.31l.7.79Z"/><path class="cls-1" d="M6.41,33.77h-.8a.18.18,0,0,1-.1-.06L4,31.85c-.19-.22-.38-.44-.56-.67a.21.21,0,0,1-.05-.13c0-.15,0-.29,0-.45h.1a3,3,0,0,0,1.3-.17,1,1,0,0,0,.64-.68.77.77,0,0,0,0-.15s0,0,0-.08H3.13L3.5,29s.06,0,.1,0H5.33A.76.76,0,0,0,5,28.57a1.6,1.6,0,0,0-.8-.22h-1c.1-.15.2-.28.27-.41a.28.28,0,0,1,.29-.15H7.32c-.13.19-.24.36-.35.54,0,0-.07,0-.1,0H6l.29.62H7.32l-.06.09c-.09.13-.17.27-.27.41a.21.21,0,0,1-.1.06H6.26c-.23,1.05-1,1.38-2,1.47l.08.1c.67.82,1.33,1.65,2,2.48a.59.59,0,0,1,.06.14Z"/></svg>