<svg id="Layer_1" data-name="Layer 1" xmlns="http://www.w3.org/2000/svg" viewBox="0 0 72 72"><defs><style>.cls-1{fill:#002c80;stroke:#fff;stroke-miterlimit:10;}.cls-2{fill:#fff;}</style></defs><circle class="cls-1" cx="36" cy="36" r="35.5"/><path class="cls-2" d="M12.9,58.68c-.3-.1-.61-.18-.89-.3a2.42,2.42,0,0,1-1.42-2.74c.27-1.32.52-2.65.8-4a7.78,7.78,0,0,1,6.11-6.31c2.29-.59,4.61-1.08,6.89-1.73A28.78,28.78,0,0,0,28,42.22a1.26,1.26,0,0,0,.59-.69c.41-1.11.76-2.24,1.12-3.37a.58.58,0,0,0-.07-.44c-1.34-2-2.7-4.09-4-6.14a1,1,0,0,0-.64-.48,1.94,1.94,0,0,1-.91-.5,7.7,7.7,0,0,1-2.18-6.16,1.75,1.75,0,0,1,.9-1.43.55.55,0,0,0,.18-.39c0-1.12,0-2.24,0-3.36a10,10,0,0,1,2.7-7.16,13.44,13.44,0,0,1,8.68-4.54A14.22,14.22,0,0,1,44.65,9.9a11.25,11.25,0,0,1,5.06,9.61c0,.88,0,1.77,0,2.65,0,.72-.31,1.13-.85,1.14S48,22.9,48,22.19c0-1.17.06-2.34,0-3.5a9.54,9.54,0,0,0-4.06-7.23A13.07,13.07,0,0,0,27,13.08a8.37,8.37,0,0,0-2.41,6.22c0,.85,0,1.7,0,2.55a1.39,1.39,0,0,0,.73,1.38c0-.85,0-1.71,0-2.57a19,19,0,0,1,.24-2.93,8.4,8.4,0,0,1,3.91-5.36c4.85-3.21,11.19-1.95,14.56.81a8.58,8.58,0,0,1,3.22,6.53c.07,1.78,0,3.57-.08,5.35a.66.66,0,0,0,.4.73,1.62,1.62,0,0,1,.85,1.87,7.93,7.93,0,0,1-.77,2.46c-1.24,2.15-2.56,4.26-3.91,6.35-.59.92-1.34,1.74-2,2.65.55.86,1.11,1.81,1.77,2.69a2.36,2.36,0,0,0,1.1.75c1.63.57,3.28,1.12,4.94,1.59s3.12.75,4.67,1.13A8,8,0,0,1,60.66,52c.26,1.31.53,2.61.78,3.92a2.52,2.52,0,0,1-1.67,2.53l-.71.22ZM26.63,26.44c0,.09,0,.11,0,.12.35,1.14.7,2.28,1.06,3.42a.66.66,0,0,0,.18.23,12.94,12.94,0,0,0,5.25,3.39c.23.09.35,0,.54-.15a2.21,2.21,0,0,1,1.05-.67,5.93,5.93,0,0,1,1.88,0,1.26,1.26,0,0,1,1.25,1.45,1.3,1.3,0,0,1-1.38,1.34,4.7,4.7,0,0,1-.75,0,11.68,11.68,0,0,1-6.39-2.22c-.67-.51-1.33-1-2-1.55a38.69,38.69,0,0,0,2.25,3.64A18.9,18.9,0,0,0,32,38.26a6.36,6.36,0,0,0,8.32.23,11.87,11.87,0,0,0,2.3-2.55c1.4-2.09,2.69-4.26,4-6.42A5.48,5.48,0,0,0,47.12,28c.23-.94,0-1.22-1-1.22-.44,0-.89,0-1.38,0l.87-3.93c-.42,0-.76.08-1.11.1a20.68,20.68,0,0,1-6.67-1,22,22,0,0,0-6.6-1,11.42,11.42,0,0,0-4.09.92l.49,4.59Zm6.09,27.11c.57-2,1.08-3.82,1.65-5.66a2.49,2.49,0,0,0-.07-2.37c-.91.32-1.85.64-2.79,1-.38.14-.6,0-.83-.31a3,3,0,0,1,.1-3.83.47.47,0,0,1,.63-.2c1.18.54,2.38,1,3.53,1.63a1.77,1.77,0,0,0,1.52.05c1.49-.59,2.93-1.28,4.4-1.91a.56.56,0,0,1,.49.13,2.82,2.82,0,0,1,0,4.43.73.73,0,0,1-.85.21c-.88-.34-1.77-.65-2.76-1a5.38,5.38,0,0,0,0,1.27c.56,2,1.17,4.06,1.76,6.09,0,.13.09.26.16.47l.82-1.7a27.14,27.14,0,0,0,2.69-8.12.94.94,0,0,0,0-.53c-.75-1.15-1.51-2.28-2.27-3.4-3.64,2.14-7.06,1.93-10.28-.93-.08.24-.14.46-.22.68-.42,1.12-.85,2.24-1.25,3.37a1.6,1.6,0,0,0-.12.8A38.22,38.22,0,0,0,32.72,53.55Z"/></svg>