<svg id="Layer_1" data-name="Layer 1" xmlns="http://www.w3.org/2000/svg" viewBox="0 0 41 36"><defs><style>.cls-1{fill:#002c80;}</style></defs><path class="cls-1" d="M22.2,15.13H39.5a1.4,1.4,0,0,1,1.09.38,1.26,1.26,0,0,1,.38.93c0,1.61,0,3.23,0,4.84a1.19,1.19,0,0,1-1,1.16,3.17,3.17,0,0,0,0,6.25,1.17,1.17,0,0,1,1,1.12c0,1.64,0,3.29,0,4.93A1.23,1.23,0,0,1,39.67,36c-.86,0-1.72,0-2.58,0Q21,36,5,36a1.41,1.41,0,0,1-1.57-1.58c0-1.49,0-3,0-4.45A1.42,1.42,0,0,1,4.5,28.65a3.14,3.14,0,0,0,2.58-3.11,3.2,3.2,0,0,0-2.63-3.11,1.21,1.21,0,0,1-1-1.18c0-1.61,0-3.21,0-4.81a1.26,1.26,0,0,1,1.41-1.31ZM32.73,34.6h6.84V30A4.5,4.5,0,0,1,36,25.91c-.09-2.42.91-3.78,3.56-4.8v-4.6H32.74c-.2.52-.41.69-.86.69s-.64-.17-.85-.68H4.8c0,1.49,0,3,0,4.44,0,.23.18.21.31.24a4.53,4.53,0,0,1,.07,8.69L4.82,30v4.63H31c.2-.52.42-.69.86-.69S32.55,34.11,32.73,34.6Z"/><path class="cls-1" d="M33.31,5.29,30.84,1.41,27.51,3.52C26.75,4,26,4.47,25.25,5a.37.37,0,0,0-.16.28.8.8,0,0,1-.45.93.76.76,0,0,1-.95-.12L23.6,6,18,9.53l-7.47,4.74a2.2,2.2,0,0,1-.46.23.69.69,0,0,1-.84-.36.65.65,0,0,1,.28-.84c.31-.21.63-.4,1-.6L30,.3a1.29,1.29,0,0,1,2,.44L34.5,4.63a1.21,1.21,0,0,1-.2,1.63,3.17,3.17,0,0,0,3.3,5.27,1.23,1.23,0,0,1,1.63.55c.21.33.42.67.64,1a.55.55,0,0,1,0,.74.63.63,0,0,1-.8.19,1.71,1.71,0,0,1-.47-.42,6.62,6.62,0,0,1-.46-.71l0,0c-2.34.62-4.29.09-5.53-2.11C31.42,8.77,31.88,7,33.31,5.29Z"/><path class="cls-1" d="M1.46,20.05C2.25,21.3,3,22.5,3.78,23.7A3.14,3.14,0,0,1,4,24a.64.64,0,0,1-.21.85.68.68,0,0,1-.91-.11C1.94,23.34,1,21.93.17,20.5A1.17,1.17,0,0,1,.62,19c.39-.27.79-.51,1.19-.76a.62.62,0,0,1,.91.23.62.62,0,0,1-.16.9C2.21,19.58,1.84,19.81,1.46,20.05Z"/><path class="cls-1" d="M26.08,7.13a2,2,0,0,1,.48.34,9,9,0,0,1,.66,1,.74.74,0,0,1-.29,1.05.74.74,0,0,1-1.1-.17c-.22-.31-.42-.65-.62-1a.71.71,0,0,1,0-.82A1,1,0,0,1,26.08,7.13Z"/><path class="cls-1" d="M28.12,10.48a2.21,2.21,0,0,1,.48.36,9,9,0,0,1,.63,1,.83.83,0,0,1-1.39.89c-.21-.31-.4-.63-.6-.95a.72.72,0,0,1,0-.82A1,1,0,0,1,28.12,10.48Z"/><path class="cls-1" d="M31.06,23.49c0-.19,0-.38,0-.57a.83.83,0,0,1,1.64-.07,9.54,9.54,0,0,1,0,1.31.83.83,0,0,1-1.64-.06C31.05,23.9,31.06,23.7,31.06,23.49Z"/><path class="cls-1" d="M31.06,27.58c0-.19,0-.38,0-.57a.76.76,0,0,1,.79-.76.75.75,0,0,1,.85.72,8.69,8.69,0,0,1,0,1.25.82.82,0,0,1-1.64-.06C31.05,28,31.06,27.78,31.06,27.58Z"/><path class="cls-1" d="M31.06,19.63c0-.2,0-.4,0-.61a.74.74,0,0,1,.72-.72c.49,0,.86.2.9.63a8.3,8.3,0,0,1,0,1.41c0,.43-.41.66-.9.63a.75.75,0,0,1-.73-.72C31.05,20,31.06,19.84,31.06,19.63Z"/><path class="cls-1" d="M31.06,31.47c0-.19,0-.38,0-.58a.73.73,0,0,1,.77-.73c.5,0,.83.22.86.66a9.69,9.69,0,0,1,0,1.32c0,.45-.36.69-.85.68a.74.74,0,0,1-.78-.74C31.05,31.88,31.06,31.68,31.06,31.47Z"/></svg>