<svg id="Layer_1" data-name="Layer 1" xmlns="http://www.w3.org/2000/svg" viewBox="0 0 250 250"><defs><style>.cls-1{fill:#fff;stroke:#04a4d0;stroke-miterlimit:10;stroke-width:2.32px;}.cls-2{fill:#145da0;}</style></defs><circle class="cls-1" cx="125" cy="125" r="124"/><path class="cls-2" d="M128.29,49.8c2.61,1.89,5,4.2,7.9,5.53,2.48,1.15,5.65,2.05,8.22,1.55,8.8-1.73,15.36,1.64,17.6,10.24a8.87,8.87,0,0,0,6.77,6.9c8.91,2.6,12.54,8.88,10.07,17.92a8.07,8.07,0,0,0,2.22,8.5c6.75,7.07,6.81,14.14.09,21-2.56,2.62-3.22,5.29-2.22,8.93,2.37,8.65-1.4,14.94-10.06,17.57-5.74,1.74-6.07,2.48-3.37,7.72,3.58,6.95,7.41,13.79,10.65,20.89,1.1,2.4.74,5.46,1.05,8.22-2.63.26-5.32,1-7.87.67-4.14-.52-8.2-1.74-12.65-2.75-2,4.73-3.66,9.42-5.91,13.84-.84,1.65-2.95,3.61-4.55,3.68s-3.95-1.7-4.85-3.29c-4-7.22-7.58-14.74-11.61-22-.76-1.37-2.87-2.26-4.54-2.79-2.34-.73-4,.24-5.15,2.67-3.55,7.31-7.23,14.57-11.22,21.65-1,1.73-3.37,3.76-5,3.71s-3.79-2.28-4.73-4.07c-2.16-4.14-3.72-8.58-5.72-13.38-4.41,1-8.73,2.23-13.13,2.82-2.4.32-6.36.33-7.1-1-1.06-1.86-.52-5.35.52-7.59q5.2-11.28,11.35-22.12c2.3-4.07.74-5.75-3-6.62-4.31-1-8.4-2.82-9.9-7.06a22.47,22.47,0,0,1-.94-10.82c.61-3.64.21-6.32-2.33-8.94q-10.09-10.43.06-21A8.13,8.13,0,0,0,71.18,92c-2.45-9.09,1.13-15.31,10-17.93,3.6-1,5.78-3,6.75-6.9,2.17-8.56,8.89-12.28,17.56-10.07a8.84,8.84,0,0,0,9.37-2.52c1.9-1.93,4.5-3.18,6.79-4.73Zm45.26,84c-3.16-7.11-.5-13.28,5.24-19.08,2.56-2.59,1.73-6.42-1-8.9-5.08-4.62-6.53-9.88-4.55-16.5,1.36-4.56-.9-8.2-5.49-9.3-6.27-1.5-10.1-5-11.64-11.39-1.24-5.18-4.91-7.24-9.9-5.71-6.08,1.86-11,.4-15.35-4-4-4-7.79-4-11.8.08-4.24,4.28-9,5.83-14.92,4-5.37-1.62-9,.31-10.27,5.74-1.52,6.18-5.23,9.67-11.27,11.21-5,1.27-7.22,4.73-5.83,9.49,1.88,6.41.6,11.54-4.3,16.13-3.55,3.32-3.59,7.47-.09,10.76,4.88,4.59,6.31,9.69,4.42,16.11-1.42,4.84.74,8.23,5.7,9.53,6,1.57,9.82,5,11.33,11.17,1.35,5.5,4.81,7.4,10.19,5.87,5.85-1.67,10.71-.4,15,3.94,4.08,4.16,7.81,4.28,11.75.24,4.38-4.49,9.31-5.91,15.35-4.15,5,1.44,8.62-.34,9.8-5.13,1.64-6.67,5.44-10.59,12.18-12C171.68,141.07,173.53,138.4,173.55,133.78Zm-27.67,58.79c1.79-4.25,3.53-7.72,4.71-11.38,1.42-4.42,4.28-5.33,8.34-4.34,3.74.91,7.5,1.77,12.08,2.85-3.68-7.14-7-13.52-10.31-20-6.56,5.81-9.93,7.1-15.87,5.33-4.8-1.43-8.2-.07-11,4.29C137.68,176.73,141.59,184.29,145.88,192.57Zm-41.77,0c3.57-6.86,6.86-13,9.92-19.21.79-1.61,1.69-4.68,1.06-5.18-2.15-1.69-5.3-3.93-7.46-3.41-7.19,1.72-13.21.84-18.23-5.37L79,179.72c5-1.17,8.94-2.09,12.87-3,3.57-.82,6,.26,7.3,3.92S102.24,188.09,104.11,192.56Z"/><path class="cls-2" d="M167.11,107.7c-.14,25.09-15.47,42.17-37.54,45.28C110.05,155.72,90,142.2,84.36,122.56a4.7,4.7,0,0,1-.4-2.29c.05-.16.1-.32.16-.48a3.23,3.23,0,0,1,5.5-1.09l0,0c.63.78.66,2.05,1,3.09,5.5,17.3,22.16,27.54,40.32,24.79,17-2.57,30.17-18.11,30.18-35.62S148,77.93,131,75.31a36.06,36.06,0,0,0-40.37,24.76c-.38,1.19-.39,2.63-1.09,3.55a6.31,6.31,0,0,1-.54.62,3,3,0,0,1-5-1.13,2,2,0,0,1-.08-.86A37.85,37.85,0,0,1,99.11,77.7c13.89-10.33,29.11-12.13,44.65-4.37C159.12,81,166.66,94,167.11,107.7Z"/><path class="cls-2" d="M106.43,130.54c1.17-4.24,2.45-7.81,3-11.49a6.67,6.67,0,0,0-1.61-5c-2.25-2.35-5.3-3.94-7.54-6.3-1.2-1.27-2.27-3.76-1.81-5.18A5.58,5.58,0,0,1,103,99.73c9.94,1.18,15.77-2.64,17.67-12.69.3-1.54,3-3.72,4.45-3.65s4,2.31,4.31,3.92c1.72,10.11,7.74,13.43,17.37,12.4,1.52-.16,4.35,1.49,4.63,2.74.36,1.66-.63,4.75-2,5.48-9,4.83-11,11.44-6.6,20.56.63,1.32-.19,4.36-1.36,5.24s-4.42.93-5.44,0c-7.45-7.11-14.5-7.29-22-.07-1,1-3.85.79-5.56.24C107.46,133.52,107,131.47,106.43,130.54Zm1.25-25c9.38,4.88,10.8,11.71,6.39,20.85,7.49-7.58,14.42-7.41,21.91,0-4.52-9.15-2.94-15.92,7.1-20.33-5.25-.8-9.91-.23-12.56-2.27-2.83-2.18-3.78-6.82-6-11.37C123.12,102.39,118.41,107.47,107.68,105.57Z"/></svg>