<svg id="Layer_1" data-name="Layer 1" xmlns="http://www.w3.org/2000/svg" viewBox="0 0 120 120"><defs><style>.cls-1{fill:#fff;stroke:#04a4d0;stroke-miterlimit:10;stroke-width:1.13px;}.cls-2{fill:#145da0;}</style></defs><circle class="cls-1" cx="60" cy="60" r="57.5"/><path class="cls-2" d="M79.52,70.15c-2.21-2.3-4.12-4.24-6-6.24a1.59,1.59,0,0,1-.06-1.31c2.38-7.22-2.45-15.55-9.17-18.22A15.42,15.42,0,0,0,45.2,51.13C42,56.88,42.42,62.41,46.28,67.57S55.61,74.73,62,73.42a2.46,2.46,0,0,1,2.63.82C66.31,76,68.06,77.6,70,79.53c-1.63.66-3,1.27-4.35,1.72a1.45,1.45,0,0,0-1.19,1.65c.05,1.39,0,2.78,0,4.17a1.85,1.85,0,0,1-2,2.14q-3.94.08-7.91,0a1.81,1.81,0,0,1-1.94-2c0-1.49.06-3-.06-4.46a1.94,1.94,0,0,0-.89-1.34,32.81,32.81,0,0,0-4.38-1.81,1.93,1.93,0,0,0-1.59.26c-1.09.93-2,2-3.08,3a1.92,1.92,0,0,1-3.12,0q-2.58-2.52-5.1-5.08c-1.32-1.34-1.32-2.08,0-3.4.94-1,1.87-1.94,2.85-2.85a1.34,1.34,0,0,0,.32-1.87,27,27,0,0,1-1.65-4,1.44,1.44,0,0,0-1.66-1.17c-1.38.06-2.78,0-4.17,0S28,63.85,28,62.4q-.06-3.81,0-7.63c0-1.52.68-2.13,2.25-2.17,1.35,0,2.69,0,4,0a1.45,1.45,0,0,0,1.68-1.14,31.33,31.33,0,0,1,1.7-4.12,1.26,1.26,0,0,0-.32-1.74c-1.06-1-2-2-3.06-3a1.81,1.81,0,0,1-.08-2.89q2.77-2.82,5.6-5.59a1.8,1.8,0,0,1,2.8,0c1.06,1,2.13,2.07,3.15,3.16a1.25,1.25,0,0,0,1.74.29,33.5,33.5,0,0,1,4.1-1.72,1.39,1.39,0,0,0,1.13-1.55c-.05-1.44,0-2.88,0-4.32s.63-2,2-2q3.81,0,7.62,0c1.62,0,2.11.53,2.14,2.21,0,1.39,0,2.78,0,4.17a1.32,1.32,0,0,0,1,1.49c1.49.52,2.9,1.25,4.39,1.76a1.74,1.74,0,0,0,1.46-.24c1.12-1,2.11-2.1,3.19-3.12s1.93-1.07,3,0c1.87,1.79,3.69,3.64,5.49,5.5A1.81,1.81,0,0,1,83,42.57c-1.07,1-2.15,2.07-3.12,3.19a1.73,1.73,0,0,0-.29,1.44,43.32,43.32,0,0,0,1.88,4.51,1.72,1.72,0,0,0,1.19.84c1.48.1,3,0,4.46.06s2.13.68,2.14,2.26q0,3.66,0,7.34c0,1.71-.61,2.28-2.37,2.3-1.3,0-2.6.07-3.89,0-1-.06-1.43.36-1.72,1.29C80.82,67.1,80.23,68.36,79.52,70.15Z"/><path class="cls-2" d="M47.2,55.27c1.82,1.88,3.53,3.53,5.12,5.29a2.36,2.36,0,0,0,2.88.83,23.68,23.68,0,0,1,3.61-1,1.8,1.8,0,0,0,1.63-1.7,4.24,4.24,0,0,1,.35-1.39c1.45-2.8.49-4.83-1.83-6.63a43.67,43.67,0,0,1-3.63-3.6A11.85,11.85,0,0,1,70,61.82a1.85,1.85,0,0,0,.56,2.12q9.95,9.9,19.83,19.85c2.19,2.2,2.3,4.94.34,6.89s-4.75,1.84-6.91-.3C77.36,84,70.93,77.59,64.58,71.13a3.2,3.2,0,0,0-3.49-1A11.83,11.83,0,0,1,46.86,56.26C46.91,56.05,47,55.84,47.2,55.27ZM87.82,85.64l-.69,0c-.44.56-1.13,1.06-1.26,1.69a1.21,1.21,0,0,0,1.42,1.49,2.12,2.12,0,0,0,1.48-1.31C88.85,86.91,88.17,86.26,87.82,85.64Z"/></svg>